<svg width="600" height="400" viewBox="-1.1000000000000048 -1.1000000000000032 602.2 402.20000000000005" xmlns="http://www.w3.org/2000/svg">
<rect x="-1.1000000000000048" y="-1.1000000000000032" width="602.2" height="402.20000000000005" fill="white"/>
	<g stroke-width="3.0165">
<path d="M -4.592425496802574e-15 25.0 A 25.0 25.0, 0, 0, 0, 25.0 6.123233995736766e-15" transform="translate(0 0)" opacity="1" fill="none" stroke="#2e88cf" stroke-width="5" ></path> <path d="M 50.0 25.0 A 25.0 25.0, 0, 0, 0, 25.0 50.0" transform="translate(0 0)" opacity="1" fill="none" stroke="#2e88cf" stroke-width="5" ></path> <path d="M 25.0 100.0 A 25.0 25.0, 0, 0, 0, 1.5308084989341915e-15 75.0" transform="translate(0 0)" opacity="1" fill="none" stroke="#2e88cf" stroke-width="5" ></path> <path d="M 25.0 50.0 A 25.0 25.0, 0, 0, 0, 49.99999999999999 75.0" transform="translate(0 0)" opacity="1" fill="none" stroke="#2e88cf" stroke-width="5" ></path> <path d="M -4.592425496802574e-15 125.0 A 25.0 25.0, 0, 0, 0, 25.0 100.0" transform="translate(0 0)" opacity="1" fill="none" stroke="#2e88cf" stroke-width="5" ></path> <path d="M 50.0 125.0 A 25.0 25.0, 0, 0, 0, 25.0 150.0" transform="translate(0 0)" opacity="1" fill="none" stroke="#2e88cf" stroke-width="5" ></path> <path d="M 25.0 200.0 A 25.0 25.0, 0, 0, 0, 1.5308084989341915e-15 175.0" transform="translate(0 0)" opacity="1" fill="none" stroke="#2e88cf" stroke-width="5" ></path> <path d="M 25.0 150.0 A 25.0 25.0, 0, 0, 0, 49.99999999999999 175.0" transform="translate(0 0)" opacity="1" fill="none" stroke="#2e88cf" stroke-width="5" ></path> <path d="M -4.592425496802574e-15 225.0 A 25.0 25.0, 0, 0, 0, 25.0 200.0" transform="translate(0 0)" opacity="1" fill="none" stroke="#2e88cf" stroke-width="5" ></path> <path d="M 50.0 225.0 A 25.0 25.0, 0, 0, 0, 25.0 250.0" transform="translate(0 0)" opacity="1" fill="none" stroke="#2e88cf" stroke-width="5" ></path> <path d="M -4.592425496802574e-15 275.0 A 25.0 25.0, 0, 0, 0, 25.0 250.0" transform="translate(0 0)" opacity="1" fill="none" stroke="#2e88cf" stroke-width="5" ></path> <path d="M 50.0 275.0 A 25.0 25.0, 0, 0, 0, 25.0 300.0" transform="translate(0 0)" opacity="1" fill="none" stroke="#2e88cf" stroke-width="5" ></path> <path d="M 25.0 350.0 A 25.0 25.0, 0, 0, 0, 1.5308084989341915e-15 325.0" transform="translate(0 0)" opacity="1" fill="none" stroke="#2e88cf" stroke-width="5" ></path> <path d="M 25.0 300.0 A 25.0 25.0, 0, 0, 0, 49.99999999999999 325.0" transform="translate(0 0)" opacity="1" fill="none" stroke="#2e88cf" stroke-width="5" ></path> <path d="M -4.592425496802574e-15 375.0 A 25.0 25.0, 0, 0, 0, 25.0 350.0" transform="translate(0 0)" opacity="1" fill="none" stroke="#2e88cf" stroke-width="5" ></path> <path d="M 50.0 375.0 A 25.0 25.0, 0, 0, 0, 25.0 400.0" transform="translate(0 0)" opacity="1" fill="none" stroke="#2e88cf" stroke-width="5" ></path> <path d="M 75.0 50.0 A 25.0 25.0, 0, 0, 0, 50.0 25.0" transform="translate(0 0)" opacity="1" fill="none" stroke="#2e88cf" stroke-width="5" ></path> <path d="M 75.0 -3.061616997868383e-15 A 25.0 25.0, 0, 0, 0, 100.0 25.0" transform="translate(0 0)" opacity="1" fill="none" stroke="#2e88cf" stroke-width="5" ></path> <path d="M 49.99999999999999 75.0 A 25.0 25.0, 0, 0, 0, 75.0 50.00000000000001" transform="translate(0 0)" opacity="1" fill="none" stroke="#2e88cf" stroke-width="5" ></path> <path d="M 100.0 75.0 A 25.0 25.0, 0, 0, 0, 75.0 100.0" transform="translate(0 0)" opacity="1" fill="none" stroke="#2e88cf" stroke-width="5" ></path> <path d="M 75.0 150.0 A 25.0 25.0, 0, 0, 0, 50.0 125.0" transform="translate(0 0)" opacity="1" fill="none" stroke="#2e88cf" stroke-width="5" ></path> <path d="M 75.0 100.0 A 25.0 25.0, 0, 0, 0, 100.0 125.0" transform="translate(0 0)" opacity="1" fill="none" stroke="#2e88cf" stroke-width="5" ></path> <path d="M 75.0 200.0 A 25.0 25.0, 0, 0, 0, 50.0 175.0" transform="translate(0 0)" opacity="1" fill="none" stroke="#2e88cf" stroke-width="5" ></path> <path d="M 75.0 150.0 A 25.0 25.0, 0, 0, 0, 100.0 175.0" transform="translate(0 0)" opacity="1" fill="none" stroke="#2e88cf" stroke-width="5" ></path> <path d="M 49.99999999999999 225.0 A 25.0 25.0, 0, 0, 0, 75.0 200.0" transform="translate(0 0)" opacity="1" fill="none" stroke="#2e88cf" stroke-width="5" ></path> <path d="M 100.0 225.0 A 25.0 25.0, 0, 0, 0, 75.0 250.0" transform="translate(0 0)" opacity="1" fill="none" stroke="#2e88cf" stroke-width="5" ></path> <path d="M 75.0 300.0 A 25.0 25.0, 0, 0, 0, 50.0 275.0" transform="translate(0 0)" opacity="1" fill="none" stroke="#2e88cf" stroke-width="5" ></path> <path d="M 75.0 250.0 A 25.0 25.0, 0, 0, 0, 100.0 275.0" transform="translate(0 0)" opacity="1" fill="none" stroke="#2e88cf" stroke-width="5" ></path> <path d="M 75.0 350.0 A 25.0 25.0, 0, 0, 0, 50.0 325.0" transform="translate(0 0)" opacity="1" fill="none" stroke="#2e88cf" stroke-width="5" ></path> <path d="M 75.0 300.0 A 25.0 25.0, 0, 0, 0, 100.0 325.0" transform="translate(0 0)" opacity="1" fill="none" stroke="#2e88cf" stroke-width="5" ></path> <path d="M 49.99999999999999 375.0 A 25.0 25.0, 0, 0, 0, 75.0 350.0" transform="translate(0 0)" opacity="1" fill="none" stroke="#2e88cf" stroke-width="5" ></path> <path d="M 100.0 375.0 A 25.0 25.0, 0, 0, 0, 75.0 400.0" transform="translate(0 0)" opacity="1" fill="none" stroke="#2e88cf" stroke-width="5" ></path> <path d="M 100.0 25.0 A 25.0 25.0, 0, 0, 0, 125.0 6.123233995736766e-15" transform="translate(0 0)" opacity="1" fill="none" stroke="#2e88cf" stroke-width="5" ></path> <path d="M 150.0 25.0 A 25.0 25.0, 0, 0, 0, 125.0 50.0" transform="translate(0 0)" opacity="1" fill="none" stroke="#2e88cf" stroke-width="5" ></path> <path d="M 125.0 100.0 A 25.0 25.0, 0, 0, 0, 100.0 75.0" transform="translate(0 0)" opacity="1" fill="none" stroke="#2e88cf" stroke-width="5" ></path> <path d="M 125.0 50.0 A 25.0 25.0, 0, 0, 0, 150.0 75.0" transform="translate(0 0)" opacity="1" fill="none" stroke="#2e88cf" stroke-width="5" ></path> <path d="M 100.0 125.0 A 25.0 25.0, 0, 0, 0, 125.0 100.0" transform="translate(0 0)" opacity="1" fill="none" stroke="#2e88cf" stroke-width="5" ></path> <path d="M 150.0 125.0 A 25.0 25.0, 0, 0, 0, 125.0 150.0" transform="translate(0 0)" opacity="1" fill="none" stroke="#2e88cf" stroke-width="5" ></path> <path d="M 125.0 200.0 A 25.0 25.0, 0, 0, 0, 100.0 175.0" transform="translate(0 0)" opacity="1" fill="none" stroke="#2e88cf" stroke-width="5" ></path> <path d="M 125.0 150.0 A 25.0 25.0, 0, 0, 0, 150.0 175.0" transform="translate(0 0)" opacity="1" fill="none" stroke="#2e88cf" stroke-width="5" ></path> <path d="M 100.0 225.0 A 25.0 25.0, 0, 0, 0, 125.0 200.0" transform="translate(0 0)" opacity="1" fill="none" stroke="#2e88cf" stroke-width="5" ></path> <path d="M 150.0 225.0 A 25.0 25.0, 0, 0, 0, 125.0 250.0" transform="translate(0 0)" opacity="1" fill="none" stroke="#2e88cf" stroke-width="5" ></path> <path d="M 100.0 275.0 A 25.0 25.0, 0, 0, 0, 125.0 250.0" transform="translate(0 0)" opacity="1" fill="none" stroke="#2e88cf" stroke-width="5" ></path> <path d="M 150.0 275.0 A 25.0 25.0, 0, 0, 0, 125.0 300.0" transform="translate(0 0)" opacity="1" fill="none" stroke="#2e88cf" stroke-width="5" ></path> <path d="M 100.0 325.0 A 25.0 25.0, 0, 0, 0, 125.0 300.0" transform="translate(0 0)" opacity="1" fill="none" stroke="#2e88cf" stroke-width="5" ></path> <path d="M 150.0 325.0 A 25.0 25.0, 0, 0, 0, 125.0 350.0" transform="translate(0 0)" opacity="1" fill="none" stroke="#2e88cf" stroke-width="5" ></path> <path d="M 100.0 375.0 A 25.0 25.0, 0, 0, 0, 125.0 350.0" transform="translate(0 0)" opacity="1" fill="none" stroke="#2e88cf" stroke-width="5" ></path> <path d="M 150.0 375.0 A 25.0 25.0, 0, 0, 0, 125.0 400.0" transform="translate(0 0)" opacity="1" fill="none" stroke="#2e88cf" stroke-width="5" ></path> <path d="M 150.0 25.0 A 25.0 25.0, 0, 0, 0, 175.0 6.123233995736766e-15" transform="translate(0 0)" opacity="1" fill="none" stroke="#2e88cf" stroke-width="5" ></path> <path d="M 200.0 25.0 A 25.0 25.0, 0, 0, 0, 175.0 50.0" transform="translate(0 0)" opacity="1" fill="none" stroke="#2e88cf" stroke-width="5" ></path> <path d="M 175.0 100.0 A 25.0 25.0, 0, 0, 0, 150.0 75.0" transform="translate(0 0)" opacity="1" fill="none" stroke="#2e88cf" stroke-width="5" ></path> <path d="M 175.0 50.0 A 25.0 25.0, 0, 0, 0, 200.0 75.0" transform="translate(0 0)" opacity="1" fill="none" stroke="#2e88cf" stroke-width="5" ></path> <path d="M 175.0 150.0 A 25.0 25.0, 0, 0, 0, 150.0 125.0" transform="translate(0 0)" opacity="1" fill="none" stroke="#2e88cf" stroke-width="5" ></path> <path d="M 175.0 100.0 A 25.0 25.0, 0, 0, 0, 200.0 125.0" transform="translate(0 0)" opacity="1" fill="none" stroke="#2e88cf" stroke-width="5" ></path> <path d="M 150.0 175.0 A 25.0 25.0, 0, 0, 0, 175.0 150.0" transform="translate(0 0)" opacity="1" fill="none" stroke="#2e88cf" stroke-width="5" ></path> <path d="M 200.0 175.0 A 25.0 25.0, 0, 0, 0, 175.0 200.0" transform="translate(0 0)" opacity="1" fill="none" stroke="#2e88cf" stroke-width="5" ></path> <path d="M 175.0 250.0 A 25.0 25.0, 0, 0, 0, 150.0 225.0" transform="translate(0 0)" opacity="1" fill="none" stroke="#2e88cf" stroke-width="5" ></path> <path d="M 175.0 200.0 A 25.0 25.0, 0, 0, 0, 200.0 225.0" transform="translate(0 0)" opacity="1" fill="none" stroke="#2e88cf" stroke-width="5" ></path> <path d="M 175.0 300.0 A 25.0 25.0, 0, 0, 0, 150.0 275.0" transform="translate(0 0)" opacity="1" fill="none" stroke="#2e88cf" stroke-width="5" ></path> <path d="M 175.0 250.0 A 25.0 25.0, 0, 0, 0, 200.0 275.0" transform="translate(0 0)" opacity="1" fill="none" stroke="#2e88cf" stroke-width="5" ></path> <path d="M 175.0 350.0 A 25.0 25.0, 0, 0, 0, 150.0 325.0" transform="translate(0 0)" opacity="1" fill="none" stroke="#2e88cf" stroke-width="5" ></path> <path d="M 175.0 300.0 A 25.0 25.0, 0, 0, 0, 200.0 325.0" transform="translate(0 0)" opacity="1" fill="none" stroke="#2e88cf" stroke-width="5" ></path> <path d="M 175.0 400.0 A 25.0 25.0, 0, 0, 0, 150.0 375.0" transform="translate(0 0)" opacity="1" fill="none" stroke="#2e88cf" stroke-width="5" ></path> <path d="M 175.0 350.0 A 25.0 25.0, 0, 0, 0, 200.0 375.0" transform="translate(0 0)" opacity="1" fill="none" stroke="#2e88cf" stroke-width="5" ></path> <path d="M 200.0 25.0 A 25.0 25.0, 0, 0, 0, 225.0 6.123233995736766e-15" transform="translate(0 0)" opacity="1" fill="none" stroke="#2e88cf" stroke-width="5" ></path> <path d="M 250.0 25.0 A 25.0 25.0, 0, 0, 0, 225.0 50.0" transform="translate(0 0)" opacity="1" fill="none" stroke="#2e88cf" stroke-width="5" ></path> <path d="M 225.0 100.0 A 25.0 25.0, 0, 0, 0, 200.0 75.0" transform="translate(0 0)" opacity="1" fill="none" stroke="#2e88cf" stroke-width="5" ></path> <path d="M 225.0 50.0 A 25.0 25.0, 0, 0, 0, 250.0 75.0" transform="translate(0 0)" opacity="1" fill="none" stroke="#2e88cf" stroke-width="5" ></path> <path d="M 200.0 125.0 A 25.0 25.0, 0, 0, 0, 225.0 100.0" transform="translate(0 0)" opacity="1" fill="none" stroke="#2e88cf" stroke-width="5" ></path> <path d="M 250.0 125.0 A 25.0 25.0, 0, 0, 0, 225.0 150.0" transform="translate(0 0)" opacity="1" fill="none" stroke="#2e88cf" stroke-width="5" ></path> <path d="M 200.0 175.0 A 25.0 25.0, 0, 0, 0, 225.0 150.0" transform="translate(0 0)" opacity="1" fill="none" stroke="#2e88cf" stroke-width="5" ></path> <path d="M 250.0 175.0 A 25.0 25.0, 0, 0, 0, 225.0 200.0" transform="translate(0 0)" opacity="1" fill="none" stroke="#2e88cf" stroke-width="5" ></path> <path d="M 225.0 250.0 A 25.0 25.0, 0, 0, 0, 200.0 225.0" transform="translate(0 0)" opacity="1" fill="none" stroke="#2e88cf" stroke-width="5" ></path> <path d="M 225.0 200.0 A 25.0 25.0, 0, 0, 0, 250.0 225.0" transform="translate(0 0)" opacity="1" fill="none" stroke="#2e88cf" stroke-width="5" ></path> <path d="M 200.0 275.0 A 25.0 25.0, 0, 0, 0, 225.0 250.0" transform="translate(0 0)" opacity="1" fill="none" stroke="#2e88cf" stroke-width="5" ></path> <path d="M 250.0 275.0 A 25.0 25.0, 0, 0, 0, 225.0 300.0" transform="translate(0 0)" opacity="1" fill="none" stroke="#2e88cf" stroke-width="5" ></path> <path d="M 200.0 325.0 A 25.0 25.0, 0, 0, 0, 225.0 300.0" transform="translate(0 0)" opacity="1" fill="none" stroke="#2e88cf" stroke-width="5" ></path> <path d="M 250.0 325.0 A 25.0 25.0, 0, 0, 0, 225.0 350.0" transform="translate(0 0)" opacity="1" fill="none" stroke="#2e88cf" stroke-width="5" ></path> <path d="M 225.0 400.0 A 25.0 25.0, 0, 0, 0, 200.0 375.0" transform="translate(0 0)" opacity="1" fill="none" stroke="#2e88cf" stroke-width="5" ></path> <path d="M 225.0 350.0 A 25.0 25.0, 0, 0, 0, 250.0 375.0" transform="translate(0 0)" opacity="1" fill="none" stroke="#2e88cf" stroke-width="5" ></path> <path d="M 275.0 50.0 A 25.0 25.0, 0, 0, 0, 250.0 25.0" transform="translate(0 0)" opacity="1" fill="none" stroke="#2e88cf" stroke-width="5" ></path> <path d="M 275.0 -3.061616997868383e-15 A 25.0 25.0, 0, 0, 0, 300.0 25.0" transform="translate(0 0)" opacity="1" fill="none" stroke="#2e88cf" stroke-width="5" ></path> <path d="M 250.0 75.0 A 25.0 25.0, 0, 0, 0, 275.0 50.00000000000001" transform="translate(0 0)" opacity="1" fill="none" stroke="#2e88cf" stroke-width="5" ></path> <path d="M 300.0 75.0 A 25.0 25.0, 0, 0, 0, 275.0 100.0" transform="translate(0 0)" opacity="1" fill="none" stroke="#2e88cf" stroke-width="5" ></path> <path d="M 250.0 125.0 A 25.0 25.0, 0, 0, 0, 275.0 100.0" transform="translate(0 0)" opacity="1" fill="none" stroke="#2e88cf" stroke-width="5" ></path> <path d="M 300.0 125.0 A 25.0 25.0, 0, 0, 0, 275.0 150.0" transform="translate(0 0)" opacity="1" fill="none" stroke="#2e88cf" stroke-width="5" ></path> <path d="M 250.0 175.0 A 25.0 25.0, 0, 0, 0, 275.0 150.0" transform="translate(0 0)" opacity="1" fill="none" stroke="#2e88cf" stroke-width="5" ></path> <path d="M 300.0 175.0 A 25.0 25.0, 0, 0, 0, 275.0 200.0" transform="translate(0 0)" opacity="1" fill="none" stroke="#2e88cf" stroke-width="5" ></path> <path d="M 275.0 250.0 A 25.0 25.0, 0, 0, 0, 250.0 225.0" transform="translate(0 0)" opacity="1" fill="none" stroke="#2e88cf" stroke-width="5" ></path> <path d="M 275.0 200.0 A 25.0 25.0, 0, 0, 0, 300.0 225.0" transform="translate(0 0)" opacity="1" fill="none" stroke="#2e88cf" stroke-width="5" ></path> <path d="M 250.0 275.0 A 25.0 25.0, 0, 0, 0, 275.0 250.0" transform="translate(0 0)" opacity="1" fill="none" stroke="#2e88cf" stroke-width="5" ></path> <path d="M 300.0 275.0 A 25.0 25.0, 0, 0, 0, 275.0 300.0" transform="translate(0 0)" opacity="1" fill="none" stroke="#2e88cf" stroke-width="5" ></path> <path d="M 250.0 325.0 A 25.0 25.0, 0, 0, 0, 275.0 300.0" transform="translate(0 0)" opacity="1" fill="none" stroke="#2e88cf" stroke-width="5" ></path> <path d="M 300.0 325.0 A 25.0 25.0, 0, 0, 0, 275.0 350.0" transform="translate(0 0)" opacity="1" fill="none" stroke="#2e88cf" stroke-width="5" ></path> <path d="M 275.0 400.0 A 25.0 25.0, 0, 0, 0, 250.0 375.0" transform="translate(0 0)" opacity="1" fill="none" stroke="#2e88cf" stroke-width="5" ></path> <path d="M 275.0 350.0 A 25.0 25.0, 0, 0, 0, 300.0 375.0" transform="translate(0 0)" opacity="1" fill="none" stroke="#2e88cf" stroke-width="5" ></path> <path d="M 300.0 25.0 A 25.0 25.0, 0, 0, 0, 325.0 6.123233995736766e-15" transform="translate(0 0)" opacity="1" fill="none" stroke="#2e88cf" stroke-width="5" ></path> <path d="M 350.0 25.0 A 25.0 25.0, 0, 0, 0, 325.0 50.0" transform="translate(0 0)" opacity="1" fill="none" stroke="#2e88cf" stroke-width="5" ></path> <path d="M 325.0 100.0 A 25.0 25.0, 0, 0, 0, 300.0 75.0" transform="translate(0 0)" opacity="1" fill="none" stroke="#2e88cf" stroke-width="5" ></path> <path d="M 325.0 50.0 A 25.0 25.0, 0, 0, 0, 350.0 75.0" transform="translate(0 0)" opacity="1" fill="none" stroke="#2e88cf" stroke-width="5" ></path> <path d="M 300.0 125.0 A 25.0 25.0, 0, 0, 0, 325.0 100.0" transform="translate(0 0)" opacity="1" fill="none" stroke="#2e88cf" stroke-width="5" ></path> <path d="M 350.0 125.0 A 25.0 25.0, 0, 0, 0, 325.0 150.0" transform="translate(0 0)" opacity="1" fill="none" stroke="#2e88cf" stroke-width="5" ></path> <path d="M 325.0 200.0 A 25.0 25.0, 0, 0, 0, 300.0 175.0" transform="translate(0 0)" opacity="1" fill="none" stroke="#2e88cf" stroke-width="5" ></path> <path d="M 325.0 150.0 A 25.0 25.0, 0, 0, 0, 350.0 175.0" transform="translate(0 0)" opacity="1" fill="none" stroke="#2e88cf" stroke-width="5" ></path> <path d="M 325.0 250.0 A 25.0 25.0, 0, 0, 0, 300.0 225.0" transform="translate(0 0)" opacity="1" fill="none" stroke="#2e88cf" stroke-width="5" ></path> <path d="M 325.0 200.0 A 25.0 25.0, 0, 0, 0, 350.0 225.0" transform="translate(0 0)" opacity="1" fill="none" stroke="#2e88cf" stroke-width="5" ></path> <path d="M 300.0 275.0 A 25.0 25.0, 0, 0, 0, 325.0 250.0" transform="translate(0 0)" opacity="1" fill="none" stroke="#2e88cf" stroke-width="5" ></path> <path d="M 350.0 275.0 A 25.0 25.0, 0, 0, 0, 325.0 300.0" transform="translate(0 0)" opacity="1" fill="none" stroke="#2e88cf" stroke-width="5" ></path> <path d="M 300.0 325.0 A 25.0 25.0, 0, 0, 0, 325.0 300.0" transform="translate(0 0)" opacity="1" fill="none" stroke="#2e88cf" stroke-width="5" ></path> <path d="M 350.0 325.0 A 25.0 25.0, 0, 0, 0, 325.0 350.0" transform="translate(0 0)" opacity="1" fill="none" stroke="#2e88cf" stroke-width="5" ></path> <path d="M 325.0 400.0 A 25.0 25.0, 0, 0, 0, 300.0 375.0" transform="translate(0 0)" opacity="1" fill="none" stroke="#2e88cf" stroke-width="5" ></path> <path d="M 325.0 350.0 A 25.0 25.0, 0, 0, 0, 350.0 375.0" transform="translate(0 0)" opacity="1" fill="none" stroke="#2e88cf" stroke-width="5" ></path> <path d="M 350.0 25.0 A 25.0 25.0, 0, 0, 0, 375.0 6.123233995736766e-15" transform="translate(0 0)" opacity="1" fill="none" stroke="#2e88cf" stroke-width="5" ></path> <path d="M 400.0 25.0 A 25.0 25.0, 0, 0, 0, 375.0 50.0" transform="translate(0 0)" opacity="1" fill="none" stroke="#2e88cf" stroke-width="5" ></path> <path d="M 375.0 100.0 A 25.0 25.0, 0, 0, 0, 350.0 75.0" transform="translate(0 0)" opacity="1" fill="none" stroke="#2e88cf" stroke-width="5" ></path> <path d="M 375.0 50.0 A 25.0 25.0, 0, 0, 0, 400.0 75.0" transform="translate(0 0)" opacity="1" fill="none" stroke="#2e88cf" stroke-width="5" ></path> <path d="M 350.0 125.0 A 25.0 25.0, 0, 0, 0, 375.0 100.0" transform="translate(0 0)" opacity="1" fill="none" stroke="#2e88cf" stroke-width="5" ></path> <path d="M 400.0 125.0 A 25.0 25.0, 0, 0, 0, 375.0 150.0" transform="translate(0 0)" opacity="1" fill="none" stroke="#2e88cf" stroke-width="5" ></path> <path d="M 375.0 200.0 A 25.0 25.0, 0, 0, 0, 350.0 175.0" transform="translate(0 0)" opacity="1" fill="none" stroke="#2e88cf" stroke-width="5" ></path> <path d="M 375.0 150.0 A 25.0 25.0, 0, 0, 0, 400.0 175.0" transform="translate(0 0)" opacity="1" fill="none" stroke="#2e88cf" stroke-width="5" ></path> <path d="M 350.0 225.0 A 25.0 25.0, 0, 0, 0, 375.0 200.0" transform="translate(0 0)" opacity="1" fill="none" stroke="#2e88cf" stroke-width="5" ></path> <path d="M 400.0 225.0 A 25.0 25.0, 0, 0, 0, 375.0 250.0" transform="translate(0 0)" opacity="1" fill="none" stroke="#2e88cf" stroke-width="5" ></path> <path d="M 350.0 275.0 A 25.0 25.0, 0, 0, 0, 375.0 250.0" transform="translate(0 0)" opacity="1" fill="none" stroke="#2e88cf" stroke-width="5" ></path> <path d="M 400.0 275.0 A 25.0 25.0, 0, 0, 0, 375.0 300.0" transform="translate(0 0)" opacity="1" fill="none" stroke="#2e88cf" stroke-width="5" ></path> <path d="M 350.0 325.0 A 25.0 25.0, 0, 0, 0, 375.0 300.0" transform="translate(0 0)" opacity="1" fill="none" stroke="#2e88cf" stroke-width="5" ></path> <path d="M 400.0 325.0 A 25.0 25.0, 0, 0, 0, 375.0 350.0" transform="translate(0 0)" opacity="1" fill="none" stroke="#2e88cf" stroke-width="5" ></path> <path d="M 350.0 375.0 A 25.0 25.0, 0, 0, 0, 375.0 350.0" transform="translate(0 0)" opacity="1" fill="none" stroke="#2e88cf" stroke-width="5" ></path> <path d="M 400.0 375.0 A 25.0 25.0, 0, 0, 0, 375.0 400.0" transform="translate(0 0)" opacity="1" fill="none" stroke="#2e88cf" stroke-width="5" ></path> <path d="M 425.0 50.0 A 25.0 25.0, 0, 0, 0, 400.0 25.0" transform="translate(0 0)" opacity="1" fill="none" stroke="#2e88cf" stroke-width="5" ></path> <path d="M 425.0 -3.061616997868383e-15 A 25.0 25.0, 0, 0, 0, 450.0 25.0" transform="translate(0 0)" opacity="1" fill="none" stroke="#2e88cf" stroke-width="5" ></path> <path d="M 425.0 100.0 A 25.0 25.0, 0, 0, 0, 400.0 75.0" transform="translate(0 0)" opacity="1" fill="none" stroke="#2e88cf" stroke-width="5" ></path> <path d="M 425.0 50.0 A 25.0 25.0, 0, 0, 0, 450.0 75.0" transform="translate(0 0)" opacity="1" fill="none" stroke="#2e88cf" stroke-width="5" ></path> <path d="M 400.0 125.0 A 25.0 25.0, 0, 0, 0, 425.0 100.0" transform="translate(0 0)" opacity="1" fill="none" stroke="#2e88cf" stroke-width="5" ></path> <path d="M 450.0 125.0 A 25.0 25.0, 0, 0, 0, 425.0 150.0" transform="translate(0 0)" opacity="1" fill="none" stroke="#2e88cf" stroke-width="5" ></path> <path d="M 400.0 175.0 A 25.0 25.0, 0, 0, 0, 425.0 150.0" transform="translate(0 0)" opacity="1" fill="none" stroke="#2e88cf" stroke-width="5" ></path> <path d="M 450.0 175.0 A 25.0 25.0, 0, 0, 0, 425.0 200.0" transform="translate(0 0)" opacity="1" fill="none" stroke="#2e88cf" stroke-width="5" ></path> <path d="M 400.0 225.0 A 25.0 25.0, 0, 0, 0, 425.0 200.0" transform="translate(0 0)" opacity="1" fill="none" stroke="#2e88cf" stroke-width="5" ></path> <path d="M 450.0 225.0 A 25.0 25.0, 0, 0, 0, 425.0 250.0" transform="translate(0 0)" opacity="1" fill="none" stroke="#2e88cf" stroke-width="5" ></path> <path d="M 425.0 300.0 A 25.0 25.0, 0, 0, 0, 400.0 275.0" transform="translate(0 0)" opacity="1" fill="none" stroke="#2e88cf" stroke-width="5" ></path> <path d="M 425.0 250.0 A 25.0 25.0, 0, 0, 0, 450.0 275.0" transform="translate(0 0)" opacity="1" fill="none" stroke="#2e88cf" stroke-width="5" ></path> <path d="M 425.0 350.0 A 25.0 25.0, 0, 0, 0, 400.0 325.0" transform="translate(0 0)" opacity="1" fill="none" stroke="#2e88cf" stroke-width="5" ></path> <path d="M 425.0 300.0 A 25.0 25.0, 0, 0, 0, 450.0 325.0" transform="translate(0 0)" opacity="1" fill="none" stroke="#2e88cf" stroke-width="5" ></path> <path d="M 400.0 375.0 A 25.0 25.0, 0, 0, 0, 425.0 350.0" transform="translate(0 0)" opacity="1" fill="none" stroke="#2e88cf" stroke-width="5" ></path> <path d="M 450.0 375.0 A 25.0 25.0, 0, 0, 0, 425.0 400.0" transform="translate(0 0)" opacity="1" fill="none" stroke="#2e88cf" stroke-width="5" ></path> <path d="M 475.0 50.0 A 25.0 25.0, 0, 0, 0, 450.0 25.0" transform="translate(0 0)" opacity="1" fill="none" stroke="#2e88cf" stroke-width="5" ></path> <path d="M 475.0 -3.061616997868383e-15 A 25.0 25.0, 0, 0, 0, 500.0 25.0" transform="translate(0 0)" opacity="1" fill="none" stroke="#2e88cf" stroke-width="5" ></path> <path d="M 450.0 75.0 A 25.0 25.0, 0, 0, 0, 475.0 50.00000000000001" transform="translate(0 0)" opacity="1" fill="none" stroke="#2e88cf" stroke-width="5" ></path> <path d="M 500.0 75.0 A 25.0 25.0, 0, 0, 0, 475.0 100.0" transform="translate(0 0)" opacity="1" fill="none" stroke="#2e88cf" stroke-width="5" ></path> <path d="M 475.0 150.0 A 25.0 25.0, 0, 0, 0, 450.0 125.0" transform="translate(0 0)" opacity="1" fill="none" stroke="#2e88cf" stroke-width="5" ></path> <path d="M 475.0 100.0 A 25.0 25.0, 0, 0, 0, 500.0 125.0" transform="translate(0 0)" opacity="1" fill="none" stroke="#2e88cf" stroke-width="5" ></path> <path d="M 475.0 200.0 A 25.0 25.0, 0, 0, 0, 450.0 175.0" transform="translate(0 0)" opacity="1" fill="none" stroke="#2e88cf" stroke-width="5" ></path> <path d="M 475.0 150.0 A 25.0 25.0, 0, 0, 0, 500.0 175.0" transform="translate(0 0)" opacity="1" fill="none" stroke="#2e88cf" stroke-width="5" ></path> <path d="M 475.0 250.0 A 25.0 25.0, 0, 0, 0, 450.0 225.0" transform="translate(0 0)" opacity="1" fill="none" stroke="#2e88cf" stroke-width="5" ></path> <path d="M 475.0 200.0 A 25.0 25.0, 0, 0, 0, 500.0 225.0" transform="translate(0 0)" opacity="1" fill="none" stroke="#2e88cf" stroke-width="5" ></path> <path d="M 450.0 275.0 A 25.0 25.0, 0, 0, 0, 475.0 250.0" transform="translate(0 0)" opacity="1" fill="none" stroke="#2e88cf" stroke-width="5" ></path> <path d="M 500.0 275.0 A 25.0 25.0, 0, 0, 0, 475.0 300.0" transform="translate(0 0)" opacity="1" fill="none" stroke="#2e88cf" stroke-width="5" ></path> <path d="M 450.0 325.0 A 25.0 25.0, 0, 0, 0, 475.0 300.0" transform="translate(0 0)" opacity="1" fill="none" stroke="#2e88cf" stroke-width="5" ></path> <path d="M 500.0 325.0 A 25.0 25.0, 0, 0, 0, 475.0 350.0" transform="translate(0 0)" opacity="1" fill="none" stroke="#2e88cf" stroke-width="5" ></path> <path d="M 450.0 375.0 A 25.0 25.0, 0, 0, 0, 475.0 350.0" transform="translate(0 0)" opacity="1" fill="none" stroke="#2e88cf" stroke-width="5" ></path> <path d="M 500.0 375.0 A 25.0 25.0, 0, 0, 0, 475.0 400.0" transform="translate(0 0)" opacity="1" fill="none" stroke="#2e88cf" stroke-width="5" ></path> <path d="M 525.0 50.0 A 25.0 25.0, 0, 0, 0, 500.0 25.0" transform="translate(0 0)" opacity="1" fill="none" stroke="#2e88cf" stroke-width="5" ></path> <path d="M 525.0 -3.061616997868383e-15 A 25.0 25.0, 0, 0, 0, 550.0 25.0" transform="translate(0 0)" opacity="1" fill="none" stroke="#2e88cf" stroke-width="5" ></path> <path d="M 500.0 75.0 A 25.0 25.0, 0, 0, 0, 525.0 50.00000000000001" transform="translate(0 0)" opacity="1" fill="none" stroke="#2e88cf" stroke-width="5" ></path> <path d="M 550.0 75.0 A 25.0 25.0, 0, 0, 0, 525.0 100.0" transform="translate(0 0)" opacity="1" fill="none" stroke="#2e88cf" stroke-width="5" ></path> <path d="M 500.0 125.0 A 25.0 25.0, 0, 0, 0, 525.0 100.0" transform="translate(0 0)" opacity="1" fill="none" stroke="#2e88cf" stroke-width="5" ></path> <path d="M 550.0 125.0 A 25.0 25.0, 0, 0, 0, 525.0 150.0" transform="translate(0 0)" opacity="1" fill="none" stroke="#2e88cf" stroke-width="5" ></path> <path d="M 525.0 200.0 A 25.0 25.0, 0, 0, 0, 500.0 175.0" transform="translate(0 0)" opacity="1" fill="none" stroke="#2e88cf" stroke-width="5" ></path> <path d="M 525.0 150.0 A 25.0 25.0, 0, 0, 0, 550.0 175.0" transform="translate(0 0)" opacity="1" fill="none" stroke="#2e88cf" stroke-width="5" ></path> <path d="M 525.0 250.0 A 25.0 25.0, 0, 0, 0, 500.0 225.0" transform="translate(0 0)" opacity="1" fill="none" stroke="#2e88cf" stroke-width="5" ></path> <path d="M 525.0 200.0 A 25.0 25.0, 0, 0, 0, 550.0 225.0" transform="translate(0 0)" opacity="1" fill="none" stroke="#2e88cf" stroke-width="5" ></path> <path d="M 500.0 275.0 A 25.0 25.0, 0, 0, 0, 525.0 250.0" transform="translate(0 0)" opacity="1" fill="none" stroke="#2e88cf" stroke-width="5" ></path> <path d="M 550.0 275.0 A 25.0 25.0, 0, 0, 0, 525.0 300.0" transform="translate(0 0)" opacity="1" fill="none" stroke="#2e88cf" stroke-width="5" ></path> <path d="M 500.0 325.0 A 25.0 25.0, 0, 0, 0, 525.0 300.0" transform="translate(0 0)" opacity="1" fill="none" stroke="#2e88cf" stroke-width="5" ></path> <path d="M 550.0 325.0 A 25.0 25.0, 0, 0, 0, 525.0 350.0" transform="translate(0 0)" opacity="1" fill="none" stroke="#2e88cf" stroke-width="5" ></path> <path d="M 525.0 400.0 A 25.0 25.0, 0, 0, 0, 500.0 375.0" transform="translate(0 0)" opacity="1" fill="none" stroke="#2e88cf" stroke-width="5" ></path> <path d="M 525.0 350.0 A 25.0 25.0, 0, 0, 0, 550.0 375.0" transform="translate(0 0)" opacity="1" fill="none" stroke="#2e88cf" stroke-width="5" ></path> <path d="M 550.0 25.0 A 25.0 25.0, 0, 0, 0, 575.0 6.123233995736766e-15" transform="translate(0 0)" opacity="1" fill="none" stroke="#2e88cf" stroke-width="5" ></path> <path d="M 600.0 25.0 A 25.0 25.0, 0, 0, 0, 575.0 50.0" transform="translate(0 0)" opacity="1" fill="none" stroke="#2e88cf" stroke-width="5" ></path> <path d="M 575.0 100.0 A 25.0 25.0, 0, 0, 0, 550.0 75.0" transform="translate(0 0)" opacity="1" fill="none" stroke="#2e88cf" stroke-width="5" ></path> <path d="M 575.0 50.0 A 25.0 25.0, 0, 0, 0, 600.0 75.0" transform="translate(0 0)" opacity="1" fill="none" stroke="#2e88cf" stroke-width="5" ></path> <path d="M 550.0 125.0 A 25.0 25.0, 0, 0, 0, 575.0 100.0" transform="translate(0 0)" opacity="1" fill="none" stroke="#2e88cf" stroke-width="5" ></path> <path d="M 600.0 125.0 A 25.0 25.0, 0, 0, 0, 575.0 150.0" transform="translate(0 0)" opacity="1" fill="none" stroke="#2e88cf" stroke-width="5" ></path> <path d="M 575.0 200.0 A 25.0 25.0, 0, 0, 0, 550.0 175.0" transform="translate(0 0)" opacity="1" fill="none" stroke="#2e88cf" stroke-width="5" ></path> <path d="M 575.0 150.0 A 25.0 25.0, 0, 0, 0, 600.0 175.0" transform="translate(0 0)" opacity="1" fill="none" stroke="#2e88cf" stroke-width="5" ></path> <path d="M 575.0 250.0 A 25.0 25.0, 0, 0, 0, 550.0 225.0" transform="translate(0 0)" opacity="1" fill="none" stroke="#2e88cf" stroke-width="5" ></path> <path d="M 575.0 200.0 A 25.0 25.0, 0, 0, 0, 600.0 225.0" transform="translate(0 0)" opacity="1" fill="none" stroke="#2e88cf" stroke-width="5" ></path> <path d="M 550.0 275.0 A 25.0 25.0, 0, 0, 0, 575.0 250.0" transform="translate(0 0)" opacity="1" fill="none" stroke="#2e88cf" stroke-width="5" ></path> <path d="M 600.0 275.0 A 25.0 25.0, 0, 0, 0, 575.0 300.0" transform="translate(0 0)" opacity="1" fill="none" stroke="#2e88cf" stroke-width="5" ></path> <path d="M 575.0 350.0 A 25.0 25.0, 0, 0, 0, 550.0 325.0" transform="translate(0 0)" opacity="1" fill="none" stroke="#2e88cf" stroke-width="5" ></path> <path d="M 575.0 300.0 A 25.0 25.0, 0, 0, 0, 600.0 325.0" transform="translate(0 0)" opacity="1" fill="none" stroke="#2e88cf" stroke-width="5" ></path> <path d="M 575.0 400.0 A 25.0 25.0, 0, 0, 0, 550.0 375.0" transform="translate(0 0)" opacity="1" fill="none" stroke="#2e88cf" stroke-width="5" ></path> <path d="M 575.0 350.0 A 25.0 25.0, 0, 0, 0, 600.0 375.0" transform="translate(0 0)" opacity="1" fill="none" stroke="#2e88cf" stroke-width="5" ></path>
	</g>
</svg>
