<svg width="600" height="400" viewBox="-1.099999999999999 -1.100000000000002 602.2 402.20000000000005" xmlns="http://www.w3.org/2000/svg">
<rect x="-1.099999999999999" y="-1.100000000000002" width="602.2" height="402.20000000000005" fill="white"/>
	<g stroke-width="3.0165">
<path d="M 16.666666666666668 50.0 A 16.666666666666668 25.0, 0, 0, 0, 1.0205389992894611e-15 25.0" transform="translate(0 0)" opacity="1" fill="none" stroke="purple" stroke-width="2" ></path> <path d="M 16.666666666666664 -2.0410779985789223e-15 A 33.333333333333336 16.666666666666668, 0, 0, 0, 49.99999999999999 16.666666666666668" transform="translate(0 0)" opacity="1" fill="none" stroke="purple" stroke-width="2" ></path> <path d="M 16.666666666666668 100.0 A 16.666666666666668 25.0, 0, 0, 0, 1.0205389992894611e-15 75.0" transform="translate(0 0)" opacity="1" fill="none" stroke="purple" stroke-width="2" ></path> <path d="M 16.666666666666664 50.0 A 33.333333333333336 16.666666666666668, 0, 0, 0, 49.99999999999999 66.66666666666667" transform="translate(0 0)" opacity="1" fill="none" stroke="purple" stroke-width="2" ></path> <path d="M 16.666666666666668 150.0 A 16.666666666666668 25.0, 0, 0, 0, 1.0205389992894611e-15 125.0" transform="translate(0 0)" opacity="1" fill="none" stroke="purple" stroke-width="2" ></path> <path d="M 16.666666666666664 100.0 A 33.333333333333336 16.666666666666668, 0, 0, 0, 49.99999999999999 116.66666666666667" transform="translate(0 0)" opacity="1" fill="none" stroke="purple" stroke-width="2" ></path> <path d="M 16.666666666666668 200.0 A 16.666666666666668 25.0, 0, 0, 0, 1.0205389992894611e-15 175.0" transform="translate(0 0)" opacity="1" fill="none" stroke="purple" stroke-width="2" ></path> <path d="M 16.666666666666664 150.0 A 33.333333333333336 16.666666666666668, 0, 0, 0, 49.99999999999999 166.66666666666666" transform="translate(0 0)" opacity="1" fill="none" stroke="purple" stroke-width="2" ></path> <path d="M 16.666666666666668 250.0 A 16.666666666666668 25.0, 0, 0, 0, 1.0205389992894611e-15 225.0" transform="translate(0 0)" opacity="1" fill="none" stroke="purple" stroke-width="2" ></path> <path d="M 16.666666666666664 200.0 A 33.333333333333336 16.666666666666668, 0, 0, 0, 49.99999999999999 216.66666666666666" transform="translate(0 0)" opacity="1" fill="none" stroke="purple" stroke-width="2" ></path> <path d="M 16.666666666666668 300.0 A 16.666666666666668 25.0, 0, 0, 0, 1.0205389992894611e-15 275.0" transform="translate(0 0)" opacity="1" fill="none" stroke="purple" stroke-width="2" ></path> <path d="M 16.666666666666664 250.0 A 33.333333333333336 16.666666666666668, 0, 0, 0, 49.99999999999999 266.6666666666667" transform="translate(0 0)" opacity="1" fill="none" stroke="purple" stroke-width="2" ></path> <path d="M 16.666666666666668 350.0 A 16.666666666666668 25.0, 0, 0, 0, 1.0205389992894611e-15 325.0" transform="translate(0 0)" opacity="1" fill="none" stroke="purple" stroke-width="2" ></path> <path d="M 16.666666666666664 300.0 A 33.333333333333336 16.666666666666668, 0, 0, 0, 49.99999999999999 316.6666666666667" transform="translate(0 0)" opacity="1" fill="none" stroke="purple" stroke-width="2" ></path> <path d="M 16.666666666666668 400.0 A 16.666666666666668 25.0, 0, 0, 0, 1.0205389992894611e-15 375.0" transform="translate(0 0)" opacity="1" fill="none" stroke="purple" stroke-width="2" ></path> <path d="M 16.666666666666664 350.0 A 33.333333333333336 16.666666666666668, 0, 0, 0, 49.99999999999999 366.6666666666667" transform="translate(0 0)" opacity="1" fill="none" stroke="purple" stroke-width="2" ></path> <path d="M 49.99999999999999 16.666666666666668 A 33.333333333333336 16.666666666666668, 0, 0, 0, 83.33333333333334 4.0821559971578446e-15" transform="translate(0 0)" opacity="1" fill="none" stroke="purple" stroke-width="2" ></path> <path d="M 100.0 25.0 A 16.666666666666668 25.0, 0, 0, 0, 83.33333333333333 50.0" transform="translate(0 0)" opacity="1" fill="none" stroke="purple" stroke-width="2" ></path> <path d="M 49.99999999999999 66.66666666666667 A 33.333333333333336 16.666666666666668, 0, 0, 0, 83.33333333333334 50.00000000000001" transform="translate(0 0)" opacity="1" fill="none" stroke="purple" stroke-width="2" ></path> <path d="M 100.0 75.0 A 16.666666666666668 25.0, 0, 0, 0, 83.33333333333333 100.0" transform="translate(0 0)" opacity="1" fill="none" stroke="purple" stroke-width="2" ></path> <path d="M 49.99999999999999 116.66666666666667 A 33.333333333333336 16.666666666666668, 0, 0, 0, 83.33333333333334 100.0" transform="translate(0 0)" opacity="1" fill="none" stroke="purple" stroke-width="2" ></path> <path d="M 100.0 125.0 A 16.666666666666668 25.0, 0, 0, 0, 83.33333333333333 150.0" transform="translate(0 0)" opacity="1" fill="none" stroke="purple" stroke-width="2" ></path> <path d="M 49.99999999999999 166.66666666666666 A 33.333333333333336 16.666666666666668, 0, 0, 0, 83.33333333333334 150.0" transform="translate(0 0)" opacity="1" fill="none" stroke="purple" stroke-width="2" ></path> <path d="M 100.0 175.0 A 16.666666666666668 25.0, 0, 0, 0, 83.33333333333333 200.0" transform="translate(0 0)" opacity="1" fill="none" stroke="purple" stroke-width="2" ></path> <path d="M 49.99999999999999 216.66666666666666 A 33.333333333333336 16.666666666666668, 0, 0, 0, 83.33333333333334 200.0" transform="translate(0 0)" opacity="1" fill="none" stroke="purple" stroke-width="2" ></path> <path d="M 100.0 225.0 A 16.666666666666668 25.0, 0, 0, 0, 83.33333333333333 250.0" transform="translate(0 0)" opacity="1" fill="none" stroke="purple" stroke-width="2" ></path> <path d="M 49.99999999999999 266.6666666666667 A 33.333333333333336 16.666666666666668, 0, 0, 0, 83.33333333333334 250.0" transform="translate(0 0)" opacity="1" fill="none" stroke="purple" stroke-width="2" ></path> <path d="M 100.0 275.0 A 16.666666666666668 25.0, 0, 0, 0, 83.33333333333333 300.0" transform="translate(0 0)" opacity="1" fill="none" stroke="purple" stroke-width="2" ></path> <path d="M 49.99999999999999 316.6666666666667 A 33.333333333333336 16.666666666666668, 0, 0, 0, 83.33333333333334 300.0" transform="translate(0 0)" opacity="1" fill="none" stroke="purple" stroke-width="2" ></path> <path d="M 100.0 325.0 A 16.666666666666668 25.0, 0, 0, 0, 83.33333333333333 350.0" transform="translate(0 0)" opacity="1" fill="none" stroke="purple" stroke-width="2" ></path> <path d="M 49.99999999999999 366.6666666666667 A 33.333333333333336 16.666666666666668, 0, 0, 0, 83.33333333333334 350.0" transform="translate(0 0)" opacity="1" fill="none" stroke="purple" stroke-width="2" ></path> <path d="M 100.0 375.0 A 16.666666666666668 25.0, 0, 0, 0, 83.33333333333333 400.0" transform="translate(0 0)" opacity="1" fill="none" stroke="purple" stroke-width="2" ></path> <path d="M 116.66666666666667 50.0 A 16.666666666666668 25.0, 0, 0, 0, 100.0 25.0" transform="translate(0 0)" opacity="1" fill="none" stroke="purple" stroke-width="2" ></path> <path d="M 116.66666666666666 -2.0410779985789223e-15 A 33.333333333333336 16.666666666666668, 0, 0, 0, 150.0 16.666666666666668" transform="translate(0 0)" opacity="1" fill="none" stroke="purple" stroke-width="2" ></path> <path d="M 116.66666666666667 100.0 A 16.666666666666668 25.0, 0, 0, 0, 100.0 75.0" transform="translate(0 0)" opacity="1" fill="none" stroke="purple" stroke-width="2" ></path> <path d="M 116.66666666666666 50.0 A 33.333333333333336 16.666666666666668, 0, 0, 0, 150.0 66.66666666666667" transform="translate(0 0)" opacity="1" fill="none" stroke="purple" stroke-width="2" ></path> <path d="M 116.66666666666667 150.0 A 16.666666666666668 25.0, 0, 0, 0, 100.0 125.0" transform="translate(0 0)" opacity="1" fill="none" stroke="purple" stroke-width="2" ></path> <path d="M 116.66666666666666 100.0 A 33.333333333333336 16.666666666666668, 0, 0, 0, 150.0 116.66666666666667" transform="translate(0 0)" opacity="1" fill="none" stroke="purple" stroke-width="2" ></path> <path d="M 116.66666666666667 200.0 A 16.666666666666668 25.0, 0, 0, 0, 100.0 175.0" transform="translate(0 0)" opacity="1" fill="none" stroke="purple" stroke-width="2" ></path> <path d="M 116.66666666666666 150.0 A 33.333333333333336 16.666666666666668, 0, 0, 0, 150.0 166.66666666666666" transform="translate(0 0)" opacity="1" fill="none" stroke="purple" stroke-width="2" ></path> <path d="M 116.66666666666667 250.0 A 16.666666666666668 25.0, 0, 0, 0, 100.0 225.0" transform="translate(0 0)" opacity="1" fill="none" stroke="purple" stroke-width="2" ></path> <path d="M 116.66666666666666 200.0 A 33.333333333333336 16.666666666666668, 0, 0, 0, 150.0 216.66666666666666" transform="translate(0 0)" opacity="1" fill="none" stroke="purple" stroke-width="2" ></path> <path d="M 116.66666666666667 300.0 A 16.666666666666668 25.0, 0, 0, 0, 100.0 275.0" transform="translate(0 0)" opacity="1" fill="none" stroke="purple" stroke-width="2" ></path> <path d="M 116.66666666666666 250.0 A 33.333333333333336 16.666666666666668, 0, 0, 0, 150.0 266.6666666666667" transform="translate(0 0)" opacity="1" fill="none" stroke="purple" stroke-width="2" ></path> <path d="M 116.66666666666667 350.0 A 16.666666666666668 25.0, 0, 0, 0, 100.0 325.0" transform="translate(0 0)" opacity="1" fill="none" stroke="purple" stroke-width="2" ></path> <path d="M 116.66666666666666 300.0 A 33.333333333333336 16.666666666666668, 0, 0, 0, 150.0 316.6666666666667" transform="translate(0 0)" opacity="1" fill="none" stroke="purple" stroke-width="2" ></path> <path d="M 116.66666666666667 400.0 A 16.666666666666668 25.0, 0, 0, 0, 100.0 375.0" transform="translate(0 0)" opacity="1" fill="none" stroke="purple" stroke-width="2" ></path> <path d="M 116.66666666666666 350.0 A 33.333333333333336 16.666666666666668, 0, 0, 0, 150.0 366.6666666666667" transform="translate(0 0)" opacity="1" fill="none" stroke="purple" stroke-width="2" ></path> <path d="M 150.0 16.666666666666668 A 33.333333333333336 16.666666666666668, 0, 0, 0, 183.33333333333334 4.0821559971578446e-15" transform="translate(0 0)" opacity="1" fill="none" stroke="purple" stroke-width="2" ></path> <path d="M 200.0 25.0 A 16.666666666666668 25.0, 0, 0, 0, 183.33333333333334 50.0" transform="translate(0 0)" opacity="1" fill="none" stroke="purple" stroke-width="2" ></path> <path d="M 150.0 66.66666666666667 A 33.333333333333336 16.666666666666668, 0, 0, 0, 183.33333333333334 50.00000000000001" transform="translate(0 0)" opacity="1" fill="none" stroke="purple" stroke-width="2" ></path> <path d="M 200.0 75.0 A 16.666666666666668 25.0, 0, 0, 0, 183.33333333333334 100.0" transform="translate(0 0)" opacity="1" fill="none" stroke="purple" stroke-width="2" ></path> <path d="M 150.0 116.66666666666667 A 33.333333333333336 16.666666666666668, 0, 0, 0, 183.33333333333334 100.0" transform="translate(0 0)" opacity="1" fill="none" stroke="purple" stroke-width="2" ></path> <path d="M 200.0 125.0 A 16.666666666666668 25.0, 0, 0, 0, 183.33333333333334 150.0" transform="translate(0 0)" opacity="1" fill="none" stroke="purple" stroke-width="2" ></path> <path d="M 150.0 166.66666666666666 A 33.333333333333336 16.666666666666668, 0, 0, 0, 183.33333333333334 150.0" transform="translate(0 0)" opacity="1" fill="none" stroke="purple" stroke-width="2" ></path> <path d="M 200.0 175.0 A 16.666666666666668 25.0, 0, 0, 0, 183.33333333333334 200.0" transform="translate(0 0)" opacity="1" fill="none" stroke="purple" stroke-width="2" ></path> <path d="M 150.0 216.66666666666666 A 33.333333333333336 16.666666666666668, 0, 0, 0, 183.33333333333334 200.0" transform="translate(0 0)" opacity="1" fill="none" stroke="purple" stroke-width="2" ></path> <path d="M 200.0 225.0 A 16.666666666666668 25.0, 0, 0, 0, 183.33333333333334 250.0" transform="translate(0 0)" opacity="1" fill="none" stroke="purple" stroke-width="2" ></path> <path d="M 150.0 266.6666666666667 A 33.333333333333336 16.666666666666668, 0, 0, 0, 183.33333333333334 250.0" transform="translate(0 0)" opacity="1" fill="none" stroke="purple" stroke-width="2" ></path> <path d="M 200.0 275.0 A 16.666666666666668 25.0, 0, 0, 0, 183.33333333333334 300.0" transform="translate(0 0)" opacity="1" fill="none" stroke="purple" stroke-width="2" ></path> <path d="M 150.0 316.6666666666667 A 33.333333333333336 16.666666666666668, 0, 0, 0, 183.33333333333334 300.0" transform="translate(0 0)" opacity="1" fill="none" stroke="purple" stroke-width="2" ></path> <path d="M 200.0 325.0 A 16.666666666666668 25.0, 0, 0, 0, 183.33333333333334 350.0" transform="translate(0 0)" opacity="1" fill="none" stroke="purple" stroke-width="2" ></path> <path d="M 150.0 366.6666666666667 A 33.333333333333336 16.666666666666668, 0, 0, 0, 183.33333333333334 350.0" transform="translate(0 0)" opacity="1" fill="none" stroke="purple" stroke-width="2" ></path> <path d="M 200.0 375.0 A 16.666666666666668 25.0, 0, 0, 0, 183.33333333333334 400.0" transform="translate(0 0)" opacity="1" fill="none" stroke="purple" stroke-width="2" ></path> <path d="M 216.66666666666666 50.0 A 16.666666666666668 25.0, 0, 0, 0, 200.0 25.0" transform="translate(0 0)" opacity="1" fill="none" stroke="purple" stroke-width="2" ></path> <path d="M 216.66666666666666 -2.0410779985789223e-15 A 33.333333333333336 16.666666666666668, 0, 0, 0, 250.0 16.666666666666668" transform="translate(0 0)" opacity="1" fill="none" stroke="purple" stroke-width="2" ></path> <path d="M 216.66666666666666 100.0 A 16.666666666666668 25.0, 0, 0, 0, 200.0 75.0" transform="translate(0 0)" opacity="1" fill="none" stroke="purple" stroke-width="2" ></path> <path d="M 216.66666666666666 50.0 A 33.333333333333336 16.666666666666668, 0, 0, 0, 250.0 66.66666666666667" transform="translate(0 0)" opacity="1" fill="none" stroke="purple" stroke-width="2" ></path> <path d="M 216.66666666666666 150.0 A 16.666666666666668 25.0, 0, 0, 0, 200.0 125.0" transform="translate(0 0)" opacity="1" fill="none" stroke="purple" stroke-width="2" ></path> <path d="M 216.66666666666666 100.0 A 33.333333333333336 16.666666666666668, 0, 0, 0, 250.0 116.66666666666667" transform="translate(0 0)" opacity="1" fill="none" stroke="purple" stroke-width="2" ></path> <path d="M 216.66666666666666 200.0 A 16.666666666666668 25.0, 0, 0, 0, 200.0 175.0" transform="translate(0 0)" opacity="1" fill="none" stroke="purple" stroke-width="2" ></path> <path d="M 216.66666666666666 150.0 A 33.333333333333336 16.666666666666668, 0, 0, 0, 250.0 166.66666666666666" transform="translate(0 0)" opacity="1" fill="none" stroke="purple" stroke-width="2" ></path> <path d="M 216.66666666666666 250.0 A 16.666666666666668 25.0, 0, 0, 0, 200.0 225.0" transform="translate(0 0)" opacity="1" fill="none" stroke="purple" stroke-width="2" ></path> <path d="M 216.66666666666666 200.0 A 33.333333333333336 16.666666666666668, 0, 0, 0, 250.0 216.66666666666666" transform="translate(0 0)" opacity="1" fill="none" stroke="purple" stroke-width="2" ></path> <path d="M 216.66666666666666 300.0 A 16.666666666666668 25.0, 0, 0, 0, 200.0 275.0" transform="translate(0 0)" opacity="1" fill="none" stroke="purple" stroke-width="2" ></path> <path d="M 216.66666666666666 250.0 A 33.333333333333336 16.666666666666668, 0, 0, 0, 250.0 266.6666666666667" transform="translate(0 0)" opacity="1" fill="none" stroke="purple" stroke-width="2" ></path> <path d="M 216.66666666666666 350.0 A 16.666666666666668 25.0, 0, 0, 0, 200.0 325.0" transform="translate(0 0)" opacity="1" fill="none" stroke="purple" stroke-width="2" ></path> <path d="M 216.66666666666666 300.0 A 33.333333333333336 16.666666666666668, 0, 0, 0, 250.0 316.6666666666667" transform="translate(0 0)" opacity="1" fill="none" stroke="purple" stroke-width="2" ></path> <path d="M 216.66666666666666 400.0 A 16.666666666666668 25.0, 0, 0, 0, 200.0 375.0" transform="translate(0 0)" opacity="1" fill="none" stroke="purple" stroke-width="2" ></path> <path d="M 216.66666666666666 350.0 A 33.333333333333336 16.666666666666668, 0, 0, 0, 250.0 366.6666666666667" transform="translate(0 0)" opacity="1" fill="none" stroke="purple" stroke-width="2" ></path> <path d="M 250.0 16.666666666666668 A 33.333333333333336 16.666666666666668, 0, 0, 0, 283.3333333333333 4.0821559971578446e-15" transform="translate(0 0)" opacity="1" fill="none" stroke="purple" stroke-width="2" ></path> <path d="M 300.0 25.0 A 16.666666666666668 25.0, 0, 0, 0, 283.3333333333333 50.0" transform="translate(0 0)" opacity="1" fill="none" stroke="purple" stroke-width="2" ></path> <path d="M 250.0 66.66666666666667 A 33.333333333333336 16.666666666666668, 0, 0, 0, 283.3333333333333 50.00000000000001" transform="translate(0 0)" opacity="1" fill="none" stroke="purple" stroke-width="2" ></path> <path d="M 300.0 75.0 A 16.666666666666668 25.0, 0, 0, 0, 283.3333333333333 100.0" transform="translate(0 0)" opacity="1" fill="none" stroke="purple" stroke-width="2" ></path> <path d="M 250.0 116.66666666666667 A 33.333333333333336 16.666666666666668, 0, 0, 0, 283.3333333333333 100.0" transform="translate(0 0)" opacity="1" fill="none" stroke="purple" stroke-width="2" ></path> <path d="M 300.0 125.0 A 16.666666666666668 25.0, 0, 0, 0, 283.3333333333333 150.0" transform="translate(0 0)" opacity="1" fill="none" stroke="purple" stroke-width="2" ></path> <path d="M 250.0 166.66666666666666 A 33.333333333333336 16.666666666666668, 0, 0, 0, 283.3333333333333 150.0" transform="translate(0 0)" opacity="1" fill="none" stroke="purple" stroke-width="2" ></path> <path d="M 300.0 175.0 A 16.666666666666668 25.0, 0, 0, 0, 283.3333333333333 200.0" transform="translate(0 0)" opacity="1" fill="none" stroke="purple" stroke-width="2" ></path> <path d="M 250.0 216.66666666666666 A 33.333333333333336 16.666666666666668, 0, 0, 0, 283.3333333333333 200.0" transform="translate(0 0)" opacity="1" fill="none" stroke="purple" stroke-width="2" ></path> <path d="M 300.0 225.0 A 16.666666666666668 25.0, 0, 0, 0, 283.3333333333333 250.0" transform="translate(0 0)" opacity="1" fill="none" stroke="purple" stroke-width="2" ></path> <path d="M 250.0 266.6666666666667 A 33.333333333333336 16.666666666666668, 0, 0, 0, 283.3333333333333 250.0" transform="translate(0 0)" opacity="1" fill="none" stroke="purple" stroke-width="2" ></path> <path d="M 300.0 275.0 A 16.666666666666668 25.0, 0, 0, 0, 283.3333333333333 300.0" transform="translate(0 0)" opacity="1" fill="none" stroke="purple" stroke-width="2" ></path> <path d="M 250.0 316.6666666666667 A 33.333333333333336 16.666666666666668, 0, 0, 0, 283.3333333333333 300.0" transform="translate(0 0)" opacity="1" fill="none" stroke="purple" stroke-width="2" ></path> <path d="M 300.0 325.0 A 16.666666666666668 25.0, 0, 0, 0, 283.3333333333333 350.0" transform="translate(0 0)" opacity="1" fill="none" stroke="purple" stroke-width="2" ></path> <path d="M 250.0 366.6666666666667 A 33.333333333333336 16.666666666666668, 0, 0, 0, 283.3333333333333 350.0" transform="translate(0 0)" opacity="1" fill="none" stroke="purple" stroke-width="2" ></path> <path d="M 300.0 375.0 A 16.666666666666668 25.0, 0, 0, 0, 283.3333333333333 400.0" transform="translate(0 0)" opacity="1" fill="none" stroke="purple" stroke-width="2" ></path> <path d="M 316.6666666666667 50.0 A 16.666666666666668 25.0, 0, 0, 0, 300.0 25.0" transform="translate(0 0)" opacity="1" fill="none" stroke="purple" stroke-width="2" ></path> <path d="M 316.6666666666667 -2.0410779985789223e-15 A 33.333333333333336 16.666666666666668, 0, 0, 0, 350.0 16.666666666666668" transform="translate(0 0)" opacity="1" fill="none" stroke="purple" stroke-width="2" ></path> <path d="M 316.6666666666667 100.0 A 16.666666666666668 25.0, 0, 0, 0, 300.0 75.0" transform="translate(0 0)" opacity="1" fill="none" stroke="purple" stroke-width="2" ></path> <path d="M 316.6666666666667 50.0 A 33.333333333333336 16.666666666666668, 0, 0, 0, 350.0 66.66666666666667" transform="translate(0 0)" opacity="1" fill="none" stroke="purple" stroke-width="2" ></path> <path d="M 316.6666666666667 150.0 A 16.666666666666668 25.0, 0, 0, 0, 300.0 125.0" transform="translate(0 0)" opacity="1" fill="none" stroke="purple" stroke-width="2" ></path> <path d="M 316.6666666666667 100.0 A 33.333333333333336 16.666666666666668, 0, 0, 0, 350.0 116.66666666666667" transform="translate(0 0)" opacity="1" fill="none" stroke="purple" stroke-width="2" ></path> <path d="M 316.6666666666667 200.0 A 16.666666666666668 25.0, 0, 0, 0, 300.0 175.0" transform="translate(0 0)" opacity="1" fill="none" stroke="purple" stroke-width="2" ></path> <path d="M 316.6666666666667 150.0 A 33.333333333333336 16.666666666666668, 0, 0, 0, 350.0 166.66666666666666" transform="translate(0 0)" opacity="1" fill="none" stroke="purple" stroke-width="2" ></path> <path d="M 316.6666666666667 250.0 A 16.666666666666668 25.0, 0, 0, 0, 300.0 225.0" transform="translate(0 0)" opacity="1" fill="none" stroke="purple" stroke-width="2" ></path> <path d="M 316.6666666666667 200.0 A 33.333333333333336 16.666666666666668, 0, 0, 0, 350.0 216.66666666666666" transform="translate(0 0)" opacity="1" fill="none" stroke="purple" stroke-width="2" ></path> <path d="M 316.6666666666667 300.0 A 16.666666666666668 25.0, 0, 0, 0, 300.0 275.0" transform="translate(0 0)" opacity="1" fill="none" stroke="purple" stroke-width="2" ></path> <path d="M 316.6666666666667 250.0 A 33.333333333333336 16.666666666666668, 0, 0, 0, 350.0 266.6666666666667" transform="translate(0 0)" opacity="1" fill="none" stroke="purple" stroke-width="2" ></path> <path d="M 316.6666666666667 350.0 A 16.666666666666668 25.0, 0, 0, 0, 300.0 325.0" transform="translate(0 0)" opacity="1" fill="none" stroke="purple" stroke-width="2" ></path> <path d="M 316.6666666666667 300.0 A 33.333333333333336 16.666666666666668, 0, 0, 0, 350.0 316.6666666666667" transform="translate(0 0)" opacity="1" fill="none" stroke="purple" stroke-width="2" ></path> <path d="M 316.6666666666667 400.0 A 16.666666666666668 25.0, 0, 0, 0, 300.0 375.0" transform="translate(0 0)" opacity="1" fill="none" stroke="purple" stroke-width="2" ></path> <path d="M 316.6666666666667 350.0 A 33.333333333333336 16.666666666666668, 0, 0, 0, 350.0 366.6666666666667" transform="translate(0 0)" opacity="1" fill="none" stroke="purple" stroke-width="2" ></path> <path d="M 350.0 16.666666666666668 A 33.333333333333336 16.666666666666668, 0, 0, 0, 383.3333333333333 4.0821559971578446e-15" transform="translate(0 0)" opacity="1" fill="none" stroke="purple" stroke-width="2" ></path> <path d="M 400.0 25.0 A 16.666666666666668 25.0, 0, 0, 0, 383.3333333333333 50.0" transform="translate(0 0)" opacity="1" fill="none" stroke="purple" stroke-width="2" ></path> <path d="M 350.0 66.66666666666667 A 33.333333333333336 16.666666666666668, 0, 0, 0, 383.3333333333333 50.00000000000001" transform="translate(0 0)" opacity="1" fill="none" stroke="purple" stroke-width="2" ></path> <path d="M 400.0 75.0 A 16.666666666666668 25.0, 0, 0, 0, 383.3333333333333 100.0" transform="translate(0 0)" opacity="1" fill="none" stroke="purple" stroke-width="2" ></path> <path d="M 350.0 116.66666666666667 A 33.333333333333336 16.666666666666668, 0, 0, 0, 383.3333333333333 100.0" transform="translate(0 0)" opacity="1" fill="none" stroke="purple" stroke-width="2" ></path> <path d="M 400.0 125.0 A 16.666666666666668 25.0, 0, 0, 0, 383.3333333333333 150.0" transform="translate(0 0)" opacity="1" fill="none" stroke="purple" stroke-width="2" ></path> <path d="M 350.0 166.66666666666666 A 33.333333333333336 16.666666666666668, 0, 0, 0, 383.3333333333333 150.0" transform="translate(0 0)" opacity="1" fill="none" stroke="purple" stroke-width="2" ></path> <path d="M 400.0 175.0 A 16.666666666666668 25.0, 0, 0, 0, 383.3333333333333 200.0" transform="translate(0 0)" opacity="1" fill="none" stroke="purple" stroke-width="2" ></path> <path d="M 350.0 216.66666666666666 A 33.333333333333336 16.666666666666668, 0, 0, 0, 383.3333333333333 200.0" transform="translate(0 0)" opacity="1" fill="none" stroke="purple" stroke-width="2" ></path> <path d="M 400.0 225.0 A 16.666666666666668 25.0, 0, 0, 0, 383.3333333333333 250.0" transform="translate(0 0)" opacity="1" fill="none" stroke="purple" stroke-width="2" ></path> <path d="M 350.0 266.6666666666667 A 33.333333333333336 16.666666666666668, 0, 0, 0, 383.3333333333333 250.0" transform="translate(0 0)" opacity="1" fill="none" stroke="purple" stroke-width="2" ></path> <path d="M 400.0 275.0 A 16.666666666666668 25.0, 0, 0, 0, 383.3333333333333 300.0" transform="translate(0 0)" opacity="1" fill="none" stroke="purple" stroke-width="2" ></path> <path d="M 350.0 316.6666666666667 A 33.333333333333336 16.666666666666668, 0, 0, 0, 383.3333333333333 300.0" transform="translate(0 0)" opacity="1" fill="none" stroke="purple" stroke-width="2" ></path> <path d="M 400.0 325.0 A 16.666666666666668 25.0, 0, 0, 0, 383.3333333333333 350.0" transform="translate(0 0)" opacity="1" fill="none" stroke="purple" stroke-width="2" ></path> <path d="M 350.0 366.6666666666667 A 33.333333333333336 16.666666666666668, 0, 0, 0, 383.3333333333333 350.0" transform="translate(0 0)" opacity="1" fill="none" stroke="purple" stroke-width="2" ></path> <path d="M 400.0 375.0 A 16.666666666666668 25.0, 0, 0, 0, 383.3333333333333 400.0" transform="translate(0 0)" opacity="1" fill="none" stroke="purple" stroke-width="2" ></path> <path d="M 416.6666666666667 50.0 A 16.666666666666668 25.0, 0, 0, 0, 400.0 25.0" transform="translate(0 0)" opacity="1" fill="none" stroke="purple" stroke-width="2" ></path> <path d="M 416.6666666666667 -2.0410779985789223e-15 A 33.333333333333336 16.666666666666668, 0, 0, 0, 450.0 16.666666666666668" transform="translate(0 0)" opacity="1" fill="none" stroke="purple" stroke-width="2" ></path> <path d="M 416.6666666666667 100.0 A 16.666666666666668 25.0, 0, 0, 0, 400.0 75.0" transform="translate(0 0)" opacity="1" fill="none" stroke="purple" stroke-width="2" ></path> <path d="M 416.6666666666667 50.0 A 33.333333333333336 16.666666666666668, 0, 0, 0, 450.0 66.66666666666667" transform="translate(0 0)" opacity="1" fill="none" stroke="purple" stroke-width="2" ></path> <path d="M 416.6666666666667 150.0 A 16.666666666666668 25.0, 0, 0, 0, 400.0 125.0" transform="translate(0 0)" opacity="1" fill="none" stroke="purple" stroke-width="2" ></path> <path d="M 416.6666666666667 100.0 A 33.333333333333336 16.666666666666668, 0, 0, 0, 450.0 116.66666666666667" transform="translate(0 0)" opacity="1" fill="none" stroke="purple" stroke-width="2" ></path> <path d="M 416.6666666666667 200.0 A 16.666666666666668 25.0, 0, 0, 0, 400.0 175.0" transform="translate(0 0)" opacity="1" fill="none" stroke="purple" stroke-width="2" ></path> <path d="M 416.6666666666667 150.0 A 33.333333333333336 16.666666666666668, 0, 0, 0, 450.0 166.66666666666666" transform="translate(0 0)" opacity="1" fill="none" stroke="purple" stroke-width="2" ></path> <path d="M 416.6666666666667 250.0 A 16.666666666666668 25.0, 0, 0, 0, 400.0 225.0" transform="translate(0 0)" opacity="1" fill="none" stroke="purple" stroke-width="2" ></path> <path d="M 416.6666666666667 200.0 A 33.333333333333336 16.666666666666668, 0, 0, 0, 450.0 216.66666666666666" transform="translate(0 0)" opacity="1" fill="none" stroke="purple" stroke-width="2" ></path> <path d="M 416.6666666666667 300.0 A 16.666666666666668 25.0, 0, 0, 0, 400.0 275.0" transform="translate(0 0)" opacity="1" fill="none" stroke="purple" stroke-width="2" ></path> <path d="M 416.6666666666667 250.0 A 33.333333333333336 16.666666666666668, 0, 0, 0, 450.0 266.6666666666667" transform="translate(0 0)" opacity="1" fill="none" stroke="purple" stroke-width="2" ></path> <path d="M 416.6666666666667 350.0 A 16.666666666666668 25.0, 0, 0, 0, 400.0 325.0" transform="translate(0 0)" opacity="1" fill="none" stroke="purple" stroke-width="2" ></path> <path d="M 416.6666666666667 300.0 A 33.333333333333336 16.666666666666668, 0, 0, 0, 450.0 316.6666666666667" transform="translate(0 0)" opacity="1" fill="none" stroke="purple" stroke-width="2" ></path> <path d="M 416.6666666666667 400.0 A 16.666666666666668 25.0, 0, 0, 0, 400.0 375.0" transform="translate(0 0)" opacity="1" fill="none" stroke="purple" stroke-width="2" ></path> <path d="M 416.6666666666667 350.0 A 33.333333333333336 16.666666666666668, 0, 0, 0, 450.0 366.6666666666667" transform="translate(0 0)" opacity="1" fill="none" stroke="purple" stroke-width="2" ></path> <path d="M 450.0 16.666666666666668 A 33.333333333333336 16.666666666666668, 0, 0, 0, 483.3333333333333 4.0821559971578446e-15" transform="translate(0 0)" opacity="1" fill="none" stroke="purple" stroke-width="2" ></path> <path d="M 500.0 25.0 A 16.666666666666668 25.0, 0, 0, 0, 483.3333333333333 50.0" transform="translate(0 0)" opacity="1" fill="none" stroke="purple" stroke-width="2" ></path> <path d="M 450.0 66.66666666666667 A 33.333333333333336 16.666666666666668, 0, 0, 0, 483.3333333333333 50.00000000000001" transform="translate(0 0)" opacity="1" fill="none" stroke="purple" stroke-width="2" ></path> <path d="M 500.0 75.0 A 16.666666666666668 25.0, 0, 0, 0, 483.3333333333333 100.0" transform="translate(0 0)" opacity="1" fill="none" stroke="purple" stroke-width="2" ></path> <path d="M 450.0 116.66666666666667 A 33.333333333333336 16.666666666666668, 0, 0, 0, 483.3333333333333 100.0" transform="translate(0 0)" opacity="1" fill="none" stroke="purple" stroke-width="2" ></path> <path d="M 500.0 125.0 A 16.666666666666668 25.0, 0, 0, 0, 483.3333333333333 150.0" transform="translate(0 0)" opacity="1" fill="none" stroke="purple" stroke-width="2" ></path> <path d="M 450.0 166.66666666666666 A 33.333333333333336 16.666666666666668, 0, 0, 0, 483.3333333333333 150.0" transform="translate(0 0)" opacity="1" fill="none" stroke="purple" stroke-width="2" ></path> <path d="M 500.0 175.0 A 16.666666666666668 25.0, 0, 0, 0, 483.3333333333333 200.0" transform="translate(0 0)" opacity="1" fill="none" stroke="purple" stroke-width="2" ></path> <path d="M 450.0 216.66666666666666 A 33.333333333333336 16.666666666666668, 0, 0, 0, 483.3333333333333 200.0" transform="translate(0 0)" opacity="1" fill="none" stroke="purple" stroke-width="2" ></path> <path d="M 500.0 225.0 A 16.666666666666668 25.0, 0, 0, 0, 483.3333333333333 250.0" transform="translate(0 0)" opacity="1" fill="none" stroke="purple" stroke-width="2" ></path> <path d="M 450.0 266.6666666666667 A 33.333333333333336 16.666666666666668, 0, 0, 0, 483.3333333333333 250.0" transform="translate(0 0)" opacity="1" fill="none" stroke="purple" stroke-width="2" ></path> <path d="M 500.0 275.0 A 16.666666666666668 25.0, 0, 0, 0, 483.3333333333333 300.0" transform="translate(0 0)" opacity="1" fill="none" stroke="purple" stroke-width="2" ></path> <path d="M 450.0 316.6666666666667 A 33.333333333333336 16.666666666666668, 0, 0, 0, 483.3333333333333 300.0" transform="translate(0 0)" opacity="1" fill="none" stroke="purple" stroke-width="2" ></path> <path d="M 500.0 325.0 A 16.666666666666668 25.0, 0, 0, 0, 483.3333333333333 350.0" transform="translate(0 0)" opacity="1" fill="none" stroke="purple" stroke-width="2" ></path> <path d="M 450.0 366.6666666666667 A 33.333333333333336 16.666666666666668, 0, 0, 0, 483.3333333333333 350.0" transform="translate(0 0)" opacity="1" fill="none" stroke="purple" stroke-width="2" ></path> <path d="M 500.0 375.0 A 16.666666666666668 25.0, 0, 0, 0, 483.3333333333333 400.0" transform="translate(0 0)" opacity="1" fill="none" stroke="purple" stroke-width="2" ></path> <path d="M 516.6666666666666 50.0 A 16.666666666666668 25.0, 0, 0, 0, 500.0 25.0" transform="translate(0 0)" opacity="1" fill="none" stroke="purple" stroke-width="2" ></path> <path d="M 516.6666666666666 -2.0410779985789223e-15 A 33.333333333333336 16.666666666666668, 0, 0, 0, 550.0 16.666666666666668" transform="translate(0 0)" opacity="1" fill="none" stroke="purple" stroke-width="2" ></path> <path d="M 516.6666666666666 100.0 A 16.666666666666668 25.0, 0, 0, 0, 500.0 75.0" transform="translate(0 0)" opacity="1" fill="none" stroke="purple" stroke-width="2" ></path> <path d="M 516.6666666666666 50.0 A 33.333333333333336 16.666666666666668, 0, 0, 0, 550.0 66.66666666666667" transform="translate(0 0)" opacity="1" fill="none" stroke="purple" stroke-width="2" ></path> <path d="M 516.6666666666666 150.0 A 16.666666666666668 25.0, 0, 0, 0, 500.0 125.0" transform="translate(0 0)" opacity="1" fill="none" stroke="purple" stroke-width="2" ></path> <path d="M 516.6666666666666 100.0 A 33.333333333333336 16.666666666666668, 0, 0, 0, 550.0 116.66666666666667" transform="translate(0 0)" opacity="1" fill="none" stroke="purple" stroke-width="2" ></path> <path d="M 516.6666666666666 200.0 A 16.666666666666668 25.0, 0, 0, 0, 500.0 175.0" transform="translate(0 0)" opacity="1" fill="none" stroke="purple" stroke-width="2" ></path> <path d="M 516.6666666666666 150.0 A 33.333333333333336 16.666666666666668, 0, 0, 0, 550.0 166.66666666666666" transform="translate(0 0)" opacity="1" fill="none" stroke="purple" stroke-width="2" ></path> <path d="M 516.6666666666666 250.0 A 16.666666666666668 25.0, 0, 0, 0, 500.0 225.0" transform="translate(0 0)" opacity="1" fill="none" stroke="purple" stroke-width="2" ></path> <path d="M 516.6666666666666 200.0 A 33.333333333333336 16.666666666666668, 0, 0, 0, 550.0 216.66666666666666" transform="translate(0 0)" opacity="1" fill="none" stroke="purple" stroke-width="2" ></path> <path d="M 516.6666666666666 300.0 A 16.666666666666668 25.0, 0, 0, 0, 500.0 275.0" transform="translate(0 0)" opacity="1" fill="none" stroke="purple" stroke-width="2" ></path> <path d="M 516.6666666666666 250.0 A 33.333333333333336 16.666666666666668, 0, 0, 0, 550.0 266.6666666666667" transform="translate(0 0)" opacity="1" fill="none" stroke="purple" stroke-width="2" ></path> <path d="M 516.6666666666666 350.0 A 16.666666666666668 25.0, 0, 0, 0, 500.0 325.0" transform="translate(0 0)" opacity="1" fill="none" stroke="purple" stroke-width="2" ></path> <path d="M 516.6666666666666 300.0 A 33.333333333333336 16.666666666666668, 0, 0, 0, 550.0 316.6666666666667" transform="translate(0 0)" opacity="1" fill="none" stroke="purple" stroke-width="2" ></path> <path d="M 516.6666666666666 400.0 A 16.666666666666668 25.0, 0, 0, 0, 500.0 375.0" transform="translate(0 0)" opacity="1" fill="none" stroke="purple" stroke-width="2" ></path> <path d="M 516.6666666666666 350.0 A 33.333333333333336 16.666666666666668, 0, 0, 0, 550.0 366.6666666666667" transform="translate(0 0)" opacity="1" fill="none" stroke="purple" stroke-width="2" ></path> <path d="M 550.0 16.666666666666668 A 33.333333333333336 16.666666666666668, 0, 0, 0, 583.3333333333334 4.0821559971578446e-15" transform="translate(0 0)" opacity="1" fill="none" stroke="purple" stroke-width="2" ></path> <path d="M 600.0 25.0 A 16.666666666666668 25.0, 0, 0, 0, 583.3333333333334 50.0" transform="translate(0 0)" opacity="1" fill="none" stroke="purple" stroke-width="2" ></path> <path d="M 550.0 66.66666666666667 A 33.333333333333336 16.666666666666668, 0, 0, 0, 583.3333333333334 50.00000000000001" transform="translate(0 0)" opacity="1" fill="none" stroke="purple" stroke-width="2" ></path> <path d="M 600.0 75.0 A 16.666666666666668 25.0, 0, 0, 0, 583.3333333333334 100.0" transform="translate(0 0)" opacity="1" fill="none" stroke="purple" stroke-width="2" ></path> <path d="M 550.0 116.66666666666667 A 33.333333333333336 16.666666666666668, 0, 0, 0, 583.3333333333334 100.0" transform="translate(0 0)" opacity="1" fill="none" stroke="purple" stroke-width="2" ></path> <path d="M 600.0 125.0 A 16.666666666666668 25.0, 0, 0, 0, 583.3333333333334 150.0" transform="translate(0 0)" opacity="1" fill="none" stroke="purple" stroke-width="2" ></path> <path d="M 550.0 166.66666666666666 A 33.333333333333336 16.666666666666668, 0, 0, 0, 583.3333333333334 150.0" transform="translate(0 0)" opacity="1" fill="none" stroke="purple" stroke-width="2" ></path> <path d="M 600.0 175.0 A 16.666666666666668 25.0, 0, 0, 0, 583.3333333333334 200.0" transform="translate(0 0)" opacity="1" fill="none" stroke="purple" stroke-width="2" ></path> <path d="M 550.0 216.66666666666666 A 33.333333333333336 16.666666666666668, 0, 0, 0, 583.3333333333334 200.0" transform="translate(0 0)" opacity="1" fill="none" stroke="purple" stroke-width="2" ></path> <path d="M 600.0 225.0 A 16.666666666666668 25.0, 0, 0, 0, 583.3333333333334 250.0" transform="translate(0 0)" opacity="1" fill="none" stroke="purple" stroke-width="2" ></path> <path d="M 550.0 266.6666666666667 A 33.333333333333336 16.666666666666668, 0, 0, 0, 583.3333333333334 250.0" transform="translate(0 0)" opacity="1" fill="none" stroke="purple" stroke-width="2" ></path> <path d="M 600.0 275.0 A 16.666666666666668 25.0, 0, 0, 0, 583.3333333333334 300.0" transform="translate(0 0)" opacity="1" fill="none" stroke="purple" stroke-width="2" ></path> <path d="M 550.0 316.6666666666667 A 33.333333333333336 16.666666666666668, 0, 0, 0, 583.3333333333334 300.0" transform="translate(0 0)" opacity="1" fill="none" stroke="purple" stroke-width="2" ></path> <path d="M 600.0 325.0 A 16.666666666666668 25.0, 0, 0, 0, 583.3333333333334 350.0" transform="translate(0 0)" opacity="1" fill="none" stroke="purple" stroke-width="2" ></path> <path d="M 550.0 366.6666666666667 A 33.333333333333336 16.666666666666668, 0, 0, 0, 583.3333333333334 350.0" transform="translate(0 0)" opacity="1" fill="none" stroke="purple" stroke-width="2" ></path> <path d="M 600.0 375.0 A 16.666666666666668 25.0, 0, 0, 0, 583.3333333333334 400.0" transform="translate(0 0)" opacity="1" fill="none" stroke="purple" stroke-width="2" ></path>
	</g>
</svg>
