<svg width="600" height="400" viewBox="-1.1 -1.1 602.2 402.20000000000005" xmlns="http://www.w3.org/2000/svg">
<rect x="-1.1" y="-1.1" width="602.2" height="402.20000000000005" fill="white"/>
	<g stroke-width="3.0165">
<path d="M 27.588834764831844 22.411165235168156 A 12.5 12.5, 0, 0, 0, 9.911165235168154 40.088834764831844" transform="translate(0 0)" opacity="1" fill="none" stroke="blue" stroke-width="2" ></path> <path d="M 22.411165235168156 9.911165235168156 A 12.5 12.5, 0, 0, 0, 40.088834764831844 27.588834764831844" transform="translate(0 0)" opacity="1" fill="none" stroke="green" stroke-width="2" ></path> <line x1="0" y1="12.5" x2="37.5" y2="50" transform="translate(0 0)" opacity="1" stroke="red" stroke-width="2" />
 <line x1="12.5" y1="0" x2="50" y2="37.5" transform="translate(0 0)" opacity="1" stroke="red" stroke-width="2" />
 <path d="M 22.411165235168156 72.41116523516816 A 12.5 12.5, 0, 0, 0, 40.088834764831844 90.08883476483184" transform="translate(0 0)" opacity="1" fill="none" stroke="blue" stroke-width="2" ></path> <path d="M 27.588834764831844 59.911165235168156 A 12.5 12.5, 0, 0, 0, 9.911165235168154 77.58883476483184" transform="translate(0 0)" opacity="1" fill="none" stroke="green" stroke-width="2" ></path> <line x1="50" y1="62.5" x2="12.5" y2="100" transform="translate(0 0)" opacity="1" stroke="red" stroke-width="2" />
 <line x1="37.5" y1="50" x2="0" y2="87.5" transform="translate(0 0)" opacity="1" stroke="red" stroke-width="2" />
 <path d="M 27.588834764831844 122.41116523516816 A 12.5 12.5, 0, 0, 0, 9.911165235168154 140.08883476483183" transform="translate(0 0)" opacity="1" fill="none" stroke="blue" stroke-width="2" ></path> <path d="M 22.411165235168156 109.91116523516816 A 12.5 12.5, 0, 0, 0, 40.088834764831844 127.58883476483184" transform="translate(0 0)" opacity="1" fill="none" stroke="green" stroke-width="2" ></path> <line x1="0" y1="112.5" x2="37.5" y2="150" transform="translate(0 0)" opacity="1" stroke="red" stroke-width="2" />
 <line x1="12.5" y1="100" x2="50" y2="137.5" transform="translate(0 0)" opacity="1" stroke="red" stroke-width="2" />
 <path d="M 22.411165235168156 172.41116523516814 A 12.5 12.5, 0, 0, 0, 40.088834764831844 190.08883476483186" transform="translate(0 0)" opacity="1" fill="none" stroke="blue" stroke-width="2" ></path> <path d="M 27.588834764831844 159.91116523516817 A 12.5 12.5, 0, 0, 0, 9.911165235168154 177.58883476483183" transform="translate(0 0)" opacity="1" fill="none" stroke="green" stroke-width="2" ></path> <line x1="50" y1="162.5" x2="12.5" y2="200" transform="translate(0 0)" opacity="1" stroke="red" stroke-width="2" />
 <line x1="37.5" y1="150" x2="0" y2="187.5" transform="translate(0 0)" opacity="1" stroke="red" stroke-width="2" />
 <path d="M 27.588834764831844 222.41116523516817 A 12.5 12.5, 0, 0, 0, 9.911165235168154 240.08883476483183" transform="translate(0 0)" opacity="1" fill="none" stroke="blue" stroke-width="2" ></path> <path d="M 22.411165235168156 209.91116523516814 A 12.5 12.5, 0, 0, 0, 40.088834764831844 227.58883476483186" transform="translate(0 0)" opacity="1" fill="none" stroke="green" stroke-width="2" ></path> <line x1="0" y1="212.5" x2="37.5" y2="250" transform="translate(0 0)" opacity="1" stroke="red" stroke-width="2" />
 <line x1="12.5" y1="200" x2="50" y2="237.5" transform="translate(0 0)" opacity="1" stroke="red" stroke-width="2" />
 <path d="M 22.411165235168156 272.41116523516814 A 12.5 12.5, 0, 0, 0, 40.088834764831844 290.08883476483186" transform="translate(0 0)" opacity="1" fill="none" stroke="blue" stroke-width="2" ></path> <path d="M 27.588834764831844 259.91116523516814 A 12.5 12.5, 0, 0, 0, 9.911165235168154 277.58883476483186" transform="translate(0 0)" opacity="1" fill="none" stroke="green" stroke-width="2" ></path> <line x1="50" y1="262.5" x2="12.5" y2="300" transform="translate(0 0)" opacity="1" stroke="red" stroke-width="2" />
 <line x1="37.5" y1="250" x2="0" y2="287.5" transform="translate(0 0)" opacity="1" stroke="red" stroke-width="2" />
 <path d="M 27.588834764831844 322.41116523516814 A 12.5 12.5, 0, 0, 0, 9.911165235168154 340.08883476483186" transform="translate(0 0)" opacity="1" fill="none" stroke="blue" stroke-width="2" ></path> <path d="M 22.411165235168156 309.91116523516814 A 12.5 12.5, 0, 0, 0, 40.088834764831844 327.58883476483186" transform="translate(0 0)" opacity="1" fill="none" stroke="green" stroke-width="2" ></path> <line x1="0" y1="312.5" x2="37.5" y2="350" transform="translate(0 0)" opacity="1" stroke="red" stroke-width="2" />
 <line x1="12.5" y1="300" x2="50" y2="337.5" transform="translate(0 0)" opacity="1" stroke="red" stroke-width="2" />
 <path d="M 22.411165235168156 372.41116523516814 A 12.5 12.5, 0, 0, 0, 40.088834764831844 390.08883476483186" transform="translate(0 0)" opacity="1" fill="none" stroke="blue" stroke-width="2" ></path> <path d="M 27.588834764831844 359.91116523516814 A 12.5 12.5, 0, 0, 0, 9.911165235168154 377.58883476483186" transform="translate(0 0)" opacity="1" fill="none" stroke="green" stroke-width="2" ></path> <line x1="50" y1="362.5" x2="12.5" y2="400" transform="translate(0 0)" opacity="1" stroke="red" stroke-width="2" />
 <line x1="37.5" y1="350" x2="0" y2="387.5" transform="translate(0 0)" opacity="1" stroke="red" stroke-width="2" />
 <path d="M 72.41116523516816 22.411165235168156 A 12.5 12.5, 0, 0, 0, 90.08883476483184 40.088834764831844" transform="translate(0 0)" opacity="1" fill="none" stroke="blue" stroke-width="2" ></path> <path d="M 77.58883476483184 9.911165235168157 A 12.5 12.5, 0, 0, 0, 59.911165235168156 27.588834764831844" transform="translate(0 0)" opacity="1" fill="none" stroke="green" stroke-width="2" ></path> <line x1="100" y1="12.5" x2="62.5" y2="50" transform="translate(0 0)" opacity="1" stroke="red" stroke-width="2" />
 <line x1="87.5" y1="0" x2="50" y2="37.5" transform="translate(0 0)" opacity="1" stroke="red" stroke-width="2" />
 <path d="M 77.58883476483184 72.41116523516816 A 12.5 12.5, 0, 0, 0, 59.911165235168156 90.08883476483184" transform="translate(0 0)" opacity="1" fill="none" stroke="blue" stroke-width="2" ></path> <path d="M 72.41116523516816 59.911165235168156 A 12.5 12.5, 0, 0, 0, 90.08883476483184 77.58883476483184" transform="translate(0 0)" opacity="1" fill="none" stroke="green" stroke-width="2" ></path> <line x1="50" y1="62.5" x2="87.5" y2="100" transform="translate(0 0)" opacity="1" stroke="red" stroke-width="2" />
 <line x1="62.5" y1="50" x2="100" y2="87.5" transform="translate(0 0)" opacity="1" stroke="red" stroke-width="2" />
 <path d="M 72.41116523516816 122.41116523516816 A 12.5 12.5, 0, 0, 0, 90.08883476483184 140.08883476483186" transform="translate(0 0)" opacity="1" fill="none" stroke="blue" stroke-width="2" ></path> <path d="M 77.58883476483184 109.91116523516816 A 12.5 12.5, 0, 0, 0, 59.911165235168156 127.58883476483184" transform="translate(0 0)" opacity="1" fill="none" stroke="green" stroke-width="2" ></path> <line x1="100" y1="112.5" x2="62.5" y2="150" transform="translate(0 0)" opacity="1" stroke="red" stroke-width="2" />
 <line x1="87.5" y1="100" x2="50" y2="137.5" transform="translate(0 0)" opacity="1" stroke="red" stroke-width="2" />
 <path d="M 77.58883476483184 172.41116523516817 A 12.5 12.5, 0, 0, 0, 59.911165235168156 190.08883476483183" transform="translate(0 0)" opacity="1" fill="none" stroke="blue" stroke-width="2" ></path> <path d="M 72.41116523516816 159.91116523516814 A 12.5 12.5, 0, 0, 0, 90.08883476483184 177.58883476483186" transform="translate(0 0)" opacity="1" fill="none" stroke="green" stroke-width="2" ></path> <line x1="50" y1="162.5" x2="87.5" y2="200" transform="translate(0 0)" opacity="1" stroke="red" stroke-width="2" />
 <line x1="62.5" y1="150" x2="100" y2="187.5" transform="translate(0 0)" opacity="1" stroke="red" stroke-width="2" />
 <path d="M 72.41116523516816 222.41116523516814 A 12.5 12.5, 0, 0, 0, 90.08883476483184 240.08883476483186" transform="translate(0 0)" opacity="1" fill="none" stroke="blue" stroke-width="2" ></path> <path d="M 77.58883476483184 209.91116523516817 A 12.5 12.5, 0, 0, 0, 59.911165235168156 227.58883476483183" transform="translate(0 0)" opacity="1" fill="none" stroke="green" stroke-width="2" ></path> <line x1="100" y1="212.5" x2="62.5" y2="250" transform="translate(0 0)" opacity="1" stroke="red" stroke-width="2" />
 <line x1="87.5" y1="200" x2="50" y2="237.5" transform="translate(0 0)" opacity="1" stroke="red" stroke-width="2" />
 <path d="M 77.58883476483184 272.41116523516814 A 12.5 12.5, 0, 0, 0, 59.911165235168156 290.08883476483186" transform="translate(0 0)" opacity="1" fill="none" stroke="blue" stroke-width="2" ></path> <path d="M 72.41116523516816 259.91116523516814 A 12.5 12.5, 0, 0, 0, 90.08883476483184 277.58883476483186" transform="translate(0 0)" opacity="1" fill="none" stroke="green" stroke-width="2" ></path> <line x1="50" y1="262.5" x2="87.5" y2="300" transform="translate(0 0)" opacity="1" stroke="red" stroke-width="2" />
 <line x1="62.5" y1="250" x2="100" y2="287.5" transform="translate(0 0)" opacity="1" stroke="red" stroke-width="2" />
 <path d="M 72.41116523516816 322.41116523516814 A 12.5 12.5, 0, 0, 0, 90.08883476483184 340.08883476483186" transform="translate(0 0)" opacity="1" fill="none" stroke="blue" stroke-width="2" ></path> <path d="M 77.58883476483184 309.91116523516814 A 12.5 12.5, 0, 0, 0, 59.911165235168156 327.58883476483186" transform="translate(0 0)" opacity="1" fill="none" stroke="green" stroke-width="2" ></path> <line x1="100" y1="312.5" x2="62.5" y2="350" transform="translate(0 0)" opacity="1" stroke="red" stroke-width="2" />
 <line x1="87.5" y1="300" x2="50" y2="337.5" transform="translate(0 0)" opacity="1" stroke="red" stroke-width="2" />
 <path d="M 77.58883476483184 372.41116523516814 A 12.5 12.5, 0, 0, 0, 59.911165235168156 390.08883476483186" transform="translate(0 0)" opacity="1" fill="none" stroke="blue" stroke-width="2" ></path> <path d="M 72.41116523516816 359.91116523516814 A 12.5 12.5, 0, 0, 0, 90.08883476483184 377.58883476483186" transform="translate(0 0)" opacity="1" fill="none" stroke="green" stroke-width="2" ></path> <line x1="50" y1="362.5" x2="87.5" y2="400" transform="translate(0 0)" opacity="1" stroke="red" stroke-width="2" />
 <line x1="62.5" y1="350" x2="100" y2="387.5" transform="translate(0 0)" opacity="1" stroke="red" stroke-width="2" />
 <path d="M 127.58883476483184 22.411165235168156 A 12.5 12.5, 0, 0, 0, 109.91116523516816 40.088834764831844" transform="translate(0 0)" opacity="1" fill="none" stroke="blue" stroke-width="2" ></path> <path d="M 122.41116523516816 9.911165235168156 A 12.5 12.5, 0, 0, 0, 140.08883476483183 27.588834764831844" transform="translate(0 0)" opacity="1" fill="none" stroke="green" stroke-width="2" ></path> <line x1="100" y1="12.5" x2="137.5" y2="50" transform="translate(0 0)" opacity="1" stroke="red" stroke-width="2" />
 <line x1="112.5" y1="0" x2="150" y2="37.5" transform="translate(0 0)" opacity="1" stroke="red" stroke-width="2" />
 <path d="M 122.41116523516816 72.41116523516816 A 12.5 12.5, 0, 0, 0, 140.08883476483183 90.08883476483184" transform="translate(0 0)" opacity="1" fill="none" stroke="blue" stroke-width="2" ></path> <path d="M 127.58883476483184 59.911165235168156 A 12.5 12.5, 0, 0, 0, 109.91116523516816 77.58883476483184" transform="translate(0 0)" opacity="1" fill="none" stroke="green" stroke-width="2" ></path> <line x1="150" y1="62.5" x2="112.5" y2="100" transform="translate(0 0)" opacity="1" stroke="red" stroke-width="2" />
 <line x1="137.5" y1="50" x2="100" y2="87.5" transform="translate(0 0)" opacity="1" stroke="red" stroke-width="2" />
 <path d="M 127.58883476483184 122.41116523516816 A 12.5 12.5, 0, 0, 0, 109.91116523516816 140.08883476483183" transform="translate(0 0)" opacity="1" fill="none" stroke="blue" stroke-width="2" ></path> <path d="M 122.41116523516816 109.91116523516816 A 12.5 12.5, 0, 0, 0, 140.08883476483183 127.58883476483184" transform="translate(0 0)" opacity="1" fill="none" stroke="green" stroke-width="2" ></path> <line x1="100" y1="112.5" x2="137.5" y2="150" transform="translate(0 0)" opacity="1" stroke="red" stroke-width="2" />
 <line x1="112.5" y1="100" x2="150" y2="137.5" transform="translate(0 0)" opacity="1" stroke="red" stroke-width="2" />
 <path d="M 122.41116523516816 172.41116523516814 A 12.5 12.5, 0, 0, 0, 140.08883476483183 190.08883476483186" transform="translate(0 0)" opacity="1" fill="none" stroke="blue" stroke-width="2" ></path> <path d="M 127.58883476483184 159.91116523516817 A 12.5 12.5, 0, 0, 0, 109.91116523516816 177.58883476483183" transform="translate(0 0)" opacity="1" fill="none" stroke="green" stroke-width="2" ></path> <line x1="150" y1="162.5" x2="112.5" y2="200" transform="translate(0 0)" opacity="1" stroke="red" stroke-width="2" />
 <line x1="137.5" y1="150" x2="100" y2="187.5" transform="translate(0 0)" opacity="1" stroke="red" stroke-width="2" />
 <path d="M 127.58883476483184 222.41116523516817 A 12.5 12.5, 0, 0, 0, 109.91116523516816 240.08883476483183" transform="translate(0 0)" opacity="1" fill="none" stroke="blue" stroke-width="2" ></path> <path d="M 122.41116523516816 209.91116523516814 A 12.5 12.5, 0, 0, 0, 140.08883476483183 227.58883476483186" transform="translate(0 0)" opacity="1" fill="none" stroke="green" stroke-width="2" ></path> <line x1="100" y1="212.5" x2="137.5" y2="250" transform="translate(0 0)" opacity="1" stroke="red" stroke-width="2" />
 <line x1="112.5" y1="200" x2="150" y2="237.5" transform="translate(0 0)" opacity="1" stroke="red" stroke-width="2" />
 <path d="M 122.41116523516816 272.41116523516814 A 12.5 12.5, 0, 0, 0, 140.08883476483183 290.08883476483186" transform="translate(0 0)" opacity="1" fill="none" stroke="blue" stroke-width="2" ></path> <path d="M 127.58883476483184 259.91116523516814 A 12.5 12.5, 0, 0, 0, 109.91116523516816 277.58883476483186" transform="translate(0 0)" opacity="1" fill="none" stroke="green" stroke-width="2" ></path> <line x1="150" y1="262.5" x2="112.5" y2="300" transform="translate(0 0)" opacity="1" stroke="red" stroke-width="2" />
 <line x1="137.5" y1="250" x2="100" y2="287.5" transform="translate(0 0)" opacity="1" stroke="red" stroke-width="2" />
 <path d="M 127.58883476483184 322.41116523516814 A 12.5 12.5, 0, 0, 0, 109.91116523516816 340.08883476483186" transform="translate(0 0)" opacity="1" fill="none" stroke="blue" stroke-width="2" ></path> <path d="M 122.41116523516816 309.91116523516814 A 12.5 12.5, 0, 0, 0, 140.08883476483183 327.58883476483186" transform="translate(0 0)" opacity="1" fill="none" stroke="green" stroke-width="2" ></path> <line x1="100" y1="312.5" x2="137.5" y2="350" transform="translate(0 0)" opacity="1" stroke="red" stroke-width="2" />
 <line x1="112.5" y1="300" x2="150" y2="337.5" transform="translate(0 0)" opacity="1" stroke="red" stroke-width="2" />
 <path d="M 122.41116523516816 372.41116523516814 A 12.5 12.5, 0, 0, 0, 140.08883476483183 390.08883476483186" transform="translate(0 0)" opacity="1" fill="none" stroke="blue" stroke-width="2" ></path> <path d="M 127.58883476483184 359.91116523516814 A 12.5 12.5, 0, 0, 0, 109.91116523516816 377.58883476483186" transform="translate(0 0)" opacity="1" fill="none" stroke="green" stroke-width="2" ></path> <line x1="150" y1="362.5" x2="112.5" y2="400" transform="translate(0 0)" opacity="1" stroke="red" stroke-width="2" />
 <line x1="137.5" y1="350" x2="100" y2="387.5" transform="translate(0 0)" opacity="1" stroke="red" stroke-width="2" />
 <path d="M 172.41116523516817 22.411165235168156 A 12.5 12.5, 0, 0, 0, 190.08883476483183 40.088834764831844" transform="translate(0 0)" opacity="1" fill="none" stroke="blue" stroke-width="2" ></path> <path d="M 177.58883476483186 9.911165235168157 A 12.5 12.5, 0, 0, 0, 159.91116523516814 27.588834764831844" transform="translate(0 0)" opacity="1" fill="none" stroke="green" stroke-width="2" ></path> <line x1="200" y1="12.5" x2="162.5" y2="50" transform="translate(0 0)" opacity="1" stroke="red" stroke-width="2" />
 <line x1="187.5" y1="0" x2="150" y2="37.5" transform="translate(0 0)" opacity="1" stroke="red" stroke-width="2" />
 <path d="M 177.58883476483186 72.41116523516816 A 12.5 12.5, 0, 0, 0, 159.91116523516814 90.08883476483184" transform="translate(0 0)" opacity="1" fill="none" stroke="blue" stroke-width="2" ></path> <path d="M 172.41116523516817 59.911165235168156 A 12.5 12.5, 0, 0, 0, 190.08883476483183 77.58883476483184" transform="translate(0 0)" opacity="1" fill="none" stroke="green" stroke-width="2" ></path> <line x1="150" y1="62.5" x2="187.5" y2="100" transform="translate(0 0)" opacity="1" stroke="red" stroke-width="2" />
 <line x1="162.5" y1="50" x2="200" y2="87.5" transform="translate(0 0)" opacity="1" stroke="red" stroke-width="2" />
 <path d="M 172.41116523516817 122.41116523516816 A 12.5 12.5, 0, 0, 0, 190.08883476483183 140.08883476483186" transform="translate(0 0)" opacity="1" fill="none" stroke="blue" stroke-width="2" ></path> <path d="M 177.58883476483186 109.91116523516816 A 12.5 12.5, 0, 0, 0, 159.91116523516814 127.58883476483184" transform="translate(0 0)" opacity="1" fill="none" stroke="green" stroke-width="2" ></path> <line x1="200" y1="112.5" x2="162.5" y2="150" transform="translate(0 0)" opacity="1" stroke="red" stroke-width="2" />
 <line x1="187.5" y1="100" x2="150" y2="137.5" transform="translate(0 0)" opacity="1" stroke="red" stroke-width="2" />
 <path d="M 177.58883476483186 172.41116523516817 A 12.5 12.5, 0, 0, 0, 159.91116523516814 190.08883476483183" transform="translate(0 0)" opacity="1" fill="none" stroke="blue" stroke-width="2" ></path> <path d="M 172.41116523516817 159.91116523516814 A 12.5 12.5, 0, 0, 0, 190.08883476483183 177.58883476483186" transform="translate(0 0)" opacity="1" fill="none" stroke="green" stroke-width="2" ></path> <line x1="150" y1="162.5" x2="187.5" y2="200" transform="translate(0 0)" opacity="1" stroke="red" stroke-width="2" />
 <line x1="162.5" y1="150" x2="200" y2="187.5" transform="translate(0 0)" opacity="1" stroke="red" stroke-width="2" />
 <path d="M 172.41116523516817 222.41116523516814 A 12.5 12.5, 0, 0, 0, 190.08883476483183 240.08883476483186" transform="translate(0 0)" opacity="1" fill="none" stroke="blue" stroke-width="2" ></path> <path d="M 177.58883476483186 209.91116523516817 A 12.5 12.5, 0, 0, 0, 159.91116523516814 227.58883476483183" transform="translate(0 0)" opacity="1" fill="none" stroke="green" stroke-width="2" ></path> <line x1="200" y1="212.5" x2="162.5" y2="250" transform="translate(0 0)" opacity="1" stroke="red" stroke-width="2" />
 <line x1="187.5" y1="200" x2="150" y2="237.5" transform="translate(0 0)" opacity="1" stroke="red" stroke-width="2" />
 <path d="M 177.58883476483186 272.41116523516814 A 12.5 12.5, 0, 0, 0, 159.91116523516814 290.08883476483186" transform="translate(0 0)" opacity="1" fill="none" stroke="blue" stroke-width="2" ></path> <path d="M 172.41116523516817 259.91116523516814 A 12.5 12.5, 0, 0, 0, 190.08883476483183 277.58883476483186" transform="translate(0 0)" opacity="1" fill="none" stroke="green" stroke-width="2" ></path> <line x1="150" y1="262.5" x2="187.5" y2="300" transform="translate(0 0)" opacity="1" stroke="red" stroke-width="2" />
 <line x1="162.5" y1="250" x2="200" y2="287.5" transform="translate(0 0)" opacity="1" stroke="red" stroke-width="2" />
 <path d="M 172.41116523516817 322.41116523516814 A 12.5 12.5, 0, 0, 0, 190.08883476483183 340.08883476483186" transform="translate(0 0)" opacity="1" fill="none" stroke="blue" stroke-width="2" ></path> <path d="M 177.58883476483186 309.91116523516814 A 12.5 12.5, 0, 0, 0, 159.91116523516814 327.58883476483186" transform="translate(0 0)" opacity="1" fill="none" stroke="green" stroke-width="2" ></path> <line x1="200" y1="312.5" x2="162.5" y2="350" transform="translate(0 0)" opacity="1" stroke="red" stroke-width="2" />
 <line x1="187.5" y1="300" x2="150" y2="337.5" transform="translate(0 0)" opacity="1" stroke="red" stroke-width="2" />
 <path d="M 177.58883476483186 372.41116523516814 A 12.5 12.5, 0, 0, 0, 159.91116523516814 390.08883476483186" transform="translate(0 0)" opacity="1" fill="none" stroke="blue" stroke-width="2" ></path> <path d="M 172.41116523516817 359.91116523516814 A 12.5 12.5, 0, 0, 0, 190.08883476483183 377.58883476483186" transform="translate(0 0)" opacity="1" fill="none" stroke="green" stroke-width="2" ></path> <line x1="150" y1="362.5" x2="187.5" y2="400" transform="translate(0 0)" opacity="1" stroke="red" stroke-width="2" />
 <line x1="162.5" y1="350" x2="200" y2="387.5" transform="translate(0 0)" opacity="1" stroke="red" stroke-width="2" />
 <path d="M 227.58883476483186 22.411165235168156 A 12.5 12.5, 0, 0, 0, 209.91116523516814 40.088834764831844" transform="translate(0 0)" opacity="1" fill="none" stroke="blue" stroke-width="2" ></path> <path d="M 222.41116523516817 9.911165235168156 A 12.5 12.5, 0, 0, 0, 240.08883476483183 27.588834764831844" transform="translate(0 0)" opacity="1" fill="none" stroke="green" stroke-width="2" ></path> <line x1="200" y1="12.5" x2="237.5" y2="50" transform="translate(0 0)" opacity="1" stroke="red" stroke-width="2" />
 <line x1="212.5" y1="0" x2="250" y2="37.5" transform="translate(0 0)" opacity="1" stroke="red" stroke-width="2" />
 <path d="M 222.41116523516817 72.41116523516816 A 12.5 12.5, 0, 0, 0, 240.08883476483183 90.08883476483184" transform="translate(0 0)" opacity="1" fill="none" stroke="blue" stroke-width="2" ></path> <path d="M 227.58883476483186 59.911165235168156 A 12.5 12.5, 0, 0, 0, 209.91116523516814 77.58883476483184" transform="translate(0 0)" opacity="1" fill="none" stroke="green" stroke-width="2" ></path> <line x1="250" y1="62.5" x2="212.5" y2="100" transform="translate(0 0)" opacity="1" stroke="red" stroke-width="2" />
 <line x1="237.5" y1="50" x2="200" y2="87.5" transform="translate(0 0)" opacity="1" stroke="red" stroke-width="2" />
 <path d="M 227.58883476483186 122.41116523516816 A 12.5 12.5, 0, 0, 0, 209.91116523516814 140.08883476483183" transform="translate(0 0)" opacity="1" fill="none" stroke="blue" stroke-width="2" ></path> <path d="M 222.41116523516817 109.91116523516816 A 12.5 12.5, 0, 0, 0, 240.08883476483183 127.58883476483184" transform="translate(0 0)" opacity="1" fill="none" stroke="green" stroke-width="2" ></path> <line x1="200" y1="112.5" x2="237.5" y2="150" transform="translate(0 0)" opacity="1" stroke="red" stroke-width="2" />
 <line x1="212.5" y1="100" x2="250" y2="137.5" transform="translate(0 0)" opacity="1" stroke="red" stroke-width="2" />
 <path d="M 222.41116523516817 172.41116523516814 A 12.5 12.5, 0, 0, 0, 240.08883476483183 190.08883476483186" transform="translate(0 0)" opacity="1" fill="none" stroke="blue" stroke-width="2" ></path> <path d="M 227.58883476483186 159.91116523516817 A 12.5 12.5, 0, 0, 0, 209.91116523516814 177.58883476483183" transform="translate(0 0)" opacity="1" fill="none" stroke="green" stroke-width="2" ></path> <line x1="250" y1="162.5" x2="212.5" y2="200" transform="translate(0 0)" opacity="1" stroke="red" stroke-width="2" />
 <line x1="237.5" y1="150" x2="200" y2="187.5" transform="translate(0 0)" opacity="1" stroke="red" stroke-width="2" />
 <path d="M 227.58883476483186 222.41116523516817 A 12.5 12.5, 0, 0, 0, 209.91116523516814 240.08883476483183" transform="translate(0 0)" opacity="1" fill="none" stroke="blue" stroke-width="2" ></path> <path d="M 222.41116523516817 209.91116523516814 A 12.5 12.5, 0, 0, 0, 240.08883476483183 227.58883476483186" transform="translate(0 0)" opacity="1" fill="none" stroke="green" stroke-width="2" ></path> <line x1="200" y1="212.5" x2="237.5" y2="250" transform="translate(0 0)" opacity="1" stroke="red" stroke-width="2" />
 <line x1="212.5" y1="200" x2="250" y2="237.5" transform="translate(0 0)" opacity="1" stroke="red" stroke-width="2" />
 <path d="M 222.41116523516817 272.41116523516814 A 12.5 12.5, 0, 0, 0, 240.08883476483183 290.08883476483186" transform="translate(0 0)" opacity="1" fill="none" stroke="blue" stroke-width="2" ></path> <path d="M 227.58883476483186 259.91116523516814 A 12.5 12.5, 0, 0, 0, 209.91116523516814 277.58883476483186" transform="translate(0 0)" opacity="1" fill="none" stroke="green" stroke-width="2" ></path> <line x1="250" y1="262.5" x2="212.5" y2="300" transform="translate(0 0)" opacity="1" stroke="red" stroke-width="2" />
 <line x1="237.5" y1="250" x2="200" y2="287.5" transform="translate(0 0)" opacity="1" stroke="red" stroke-width="2" />
 <path d="M 227.58883476483186 322.41116523516814 A 12.5 12.5, 0, 0, 0, 209.91116523516814 340.08883476483186" transform="translate(0 0)" opacity="1" fill="none" stroke="blue" stroke-width="2" ></path> <path d="M 222.41116523516817 309.91116523516814 A 12.5 12.5, 0, 0, 0, 240.08883476483183 327.58883476483186" transform="translate(0 0)" opacity="1" fill="none" stroke="green" stroke-width="2" ></path> <line x1="200" y1="312.5" x2="237.5" y2="350" transform="translate(0 0)" opacity="1" stroke="red" stroke-width="2" />
 <line x1="212.5" y1="300" x2="250" y2="337.5" transform="translate(0 0)" opacity="1" stroke="red" stroke-width="2" />
 <path d="M 222.41116523516817 372.41116523516814 A 12.5 12.5, 0, 0, 0, 240.08883476483183 390.08883476483186" transform="translate(0 0)" opacity="1" fill="none" stroke="blue" stroke-width="2" ></path> <path d="M 227.58883476483186 359.91116523516814 A 12.5 12.5, 0, 0, 0, 209.91116523516814 377.58883476483186" transform="translate(0 0)" opacity="1" fill="none" stroke="green" stroke-width="2" ></path> <line x1="250" y1="362.5" x2="212.5" y2="400" transform="translate(0 0)" opacity="1" stroke="red" stroke-width="2" />
 <line x1="237.5" y1="350" x2="200" y2="387.5" transform="translate(0 0)" opacity="1" stroke="red" stroke-width="2" />
 <path d="M 272.41116523516814 22.411165235168156 A 12.5 12.5, 0, 0, 0, 290.08883476483186 40.088834764831844" transform="translate(0 0)" opacity="1" fill="none" stroke="blue" stroke-width="2" ></path> <path d="M 277.58883476483186 9.911165235168157 A 12.5 12.5, 0, 0, 0, 259.91116523516814 27.588834764831844" transform="translate(0 0)" opacity="1" fill="none" stroke="green" stroke-width="2" ></path> <line x1="300" y1="12.5" x2="262.5" y2="50" transform="translate(0 0)" opacity="1" stroke="red" stroke-width="2" />
 <line x1="287.5" y1="0" x2="250" y2="37.5" transform="translate(0 0)" opacity="1" stroke="red" stroke-width="2" />
 <path d="M 277.58883476483186 72.41116523516816 A 12.5 12.5, 0, 0, 0, 259.91116523516814 90.08883476483184" transform="translate(0 0)" opacity="1" fill="none" stroke="blue" stroke-width="2" ></path> <path d="M 272.41116523516814 59.911165235168156 A 12.5 12.5, 0, 0, 0, 290.08883476483186 77.58883476483184" transform="translate(0 0)" opacity="1" fill="none" stroke="green" stroke-width="2" ></path> <line x1="250" y1="62.5" x2="287.5" y2="100" transform="translate(0 0)" opacity="1" stroke="red" stroke-width="2" />
 <line x1="262.5" y1="50" x2="300" y2="87.5" transform="translate(0 0)" opacity="1" stroke="red" stroke-width="2" />
 <path d="M 272.41116523516814 122.41116523516816 A 12.5 12.5, 0, 0, 0, 290.08883476483186 140.08883476483186" transform="translate(0 0)" opacity="1" fill="none" stroke="blue" stroke-width="2" ></path> <path d="M 277.58883476483186 109.91116523516816 A 12.5 12.5, 0, 0, 0, 259.91116523516814 127.58883476483184" transform="translate(0 0)" opacity="1" fill="none" stroke="green" stroke-width="2" ></path> <line x1="300" y1="112.5" x2="262.5" y2="150" transform="translate(0 0)" opacity="1" stroke="red" stroke-width="2" />
 <line x1="287.5" y1="100" x2="250" y2="137.5" transform="translate(0 0)" opacity="1" stroke="red" stroke-width="2" />
 <path d="M 277.58883476483186 172.41116523516817 A 12.5 12.5, 0, 0, 0, 259.91116523516814 190.08883476483183" transform="translate(0 0)" opacity="1" fill="none" stroke="blue" stroke-width="2" ></path> <path d="M 272.41116523516814 159.91116523516814 A 12.5 12.5, 0, 0, 0, 290.08883476483186 177.58883476483186" transform="translate(0 0)" opacity="1" fill="none" stroke="green" stroke-width="2" ></path> <line x1="250" y1="162.5" x2="287.5" y2="200" transform="translate(0 0)" opacity="1" stroke="red" stroke-width="2" />
 <line x1="262.5" y1="150" x2="300" y2="187.5" transform="translate(0 0)" opacity="1" stroke="red" stroke-width="2" />
 <path d="M 272.41116523516814 222.41116523516814 A 12.5 12.5, 0, 0, 0, 290.08883476483186 240.08883476483186" transform="translate(0 0)" opacity="1" fill="none" stroke="blue" stroke-width="2" ></path> <path d="M 277.58883476483186 209.91116523516817 A 12.5 12.5, 0, 0, 0, 259.91116523516814 227.58883476483183" transform="translate(0 0)" opacity="1" fill="none" stroke="green" stroke-width="2" ></path> <line x1="300" y1="212.5" x2="262.5" y2="250" transform="translate(0 0)" opacity="1" stroke="red" stroke-width="2" />
 <line x1="287.5" y1="200" x2="250" y2="237.5" transform="translate(0 0)" opacity="1" stroke="red" stroke-width="2" />
 <path d="M 277.58883476483186 272.41116523516814 A 12.5 12.5, 0, 0, 0, 259.91116523516814 290.08883476483186" transform="translate(0 0)" opacity="1" fill="none" stroke="blue" stroke-width="2" ></path> <path d="M 272.41116523516814 259.91116523516814 A 12.5 12.5, 0, 0, 0, 290.08883476483186 277.58883476483186" transform="translate(0 0)" opacity="1" fill="none" stroke="green" stroke-width="2" ></path> <line x1="250" y1="262.5" x2="287.5" y2="300" transform="translate(0 0)" opacity="1" stroke="red" stroke-width="2" />
 <line x1="262.5" y1="250" x2="300" y2="287.5" transform="translate(0 0)" opacity="1" stroke="red" stroke-width="2" />
 <path d="M 272.41116523516814 322.41116523516814 A 12.5 12.5, 0, 0, 0, 290.08883476483186 340.08883476483186" transform="translate(0 0)" opacity="1" fill="none" stroke="blue" stroke-width="2" ></path> <path d="M 277.58883476483186 309.91116523516814 A 12.5 12.5, 0, 0, 0, 259.91116523516814 327.58883476483186" transform="translate(0 0)" opacity="1" fill="none" stroke="green" stroke-width="2" ></path> <line x1="300" y1="312.5" x2="262.5" y2="350" transform="translate(0 0)" opacity="1" stroke="red" stroke-width="2" />
 <line x1="287.5" y1="300" x2="250" y2="337.5" transform="translate(0 0)" opacity="1" stroke="red" stroke-width="2" />
 <path d="M 277.58883476483186 372.41116523516814 A 12.5 12.5, 0, 0, 0, 259.91116523516814 390.08883476483186" transform="translate(0 0)" opacity="1" fill="none" stroke="blue" stroke-width="2" ></path> <path d="M 272.41116523516814 359.91116523516814 A 12.5 12.5, 0, 0, 0, 290.08883476483186 377.58883476483186" transform="translate(0 0)" opacity="1" fill="none" stroke="green" stroke-width="2" ></path> <line x1="250" y1="362.5" x2="287.5" y2="400" transform="translate(0 0)" opacity="1" stroke="red" stroke-width="2" />
 <line x1="262.5" y1="350" x2="300" y2="387.5" transform="translate(0 0)" opacity="1" stroke="red" stroke-width="2" />
 <path d="M 327.58883476483186 22.411165235168156 A 12.5 12.5, 0, 0, 0, 309.91116523516814 40.088834764831844" transform="translate(0 0)" opacity="1" fill="none" stroke="blue" stroke-width="2" ></path> <path d="M 322.41116523516814 9.911165235168156 A 12.5 12.5, 0, 0, 0, 340.08883476483186 27.588834764831844" transform="translate(0 0)" opacity="1" fill="none" stroke="green" stroke-width="2" ></path> <line x1="300" y1="12.5" x2="337.5" y2="50" transform="translate(0 0)" opacity="1" stroke="red" stroke-width="2" />
 <line x1="312.5" y1="0" x2="350" y2="37.5" transform="translate(0 0)" opacity="1" stroke="red" stroke-width="2" />
 <path d="M 322.41116523516814 72.41116523516816 A 12.5 12.5, 0, 0, 0, 340.08883476483186 90.08883476483184" transform="translate(0 0)" opacity="1" fill="none" stroke="blue" stroke-width="2" ></path> <path d="M 327.58883476483186 59.911165235168156 A 12.5 12.5, 0, 0, 0, 309.91116523516814 77.58883476483184" transform="translate(0 0)" opacity="1" fill="none" stroke="green" stroke-width="2" ></path> <line x1="350" y1="62.5" x2="312.5" y2="100" transform="translate(0 0)" opacity="1" stroke="red" stroke-width="2" />
 <line x1="337.5" y1="50" x2="300" y2="87.5" transform="translate(0 0)" opacity="1" stroke="red" stroke-width="2" />
 <path d="M 327.58883476483186 122.41116523516816 A 12.5 12.5, 0, 0, 0, 309.91116523516814 140.08883476483183" transform="translate(0 0)" opacity="1" fill="none" stroke="blue" stroke-width="2" ></path> <path d="M 322.41116523516814 109.91116523516816 A 12.5 12.5, 0, 0, 0, 340.08883476483186 127.58883476483184" transform="translate(0 0)" opacity="1" fill="none" stroke="green" stroke-width="2" ></path> <line x1="300" y1="112.5" x2="337.5" y2="150" transform="translate(0 0)" opacity="1" stroke="red" stroke-width="2" />
 <line x1="312.5" y1="100" x2="350" y2="137.5" transform="translate(0 0)" opacity="1" stroke="red" stroke-width="2" />
 <path d="M 322.41116523516814 172.41116523516814 A 12.5 12.5, 0, 0, 0, 340.08883476483186 190.08883476483186" transform="translate(0 0)" opacity="1" fill="none" stroke="blue" stroke-width="2" ></path> <path d="M 327.58883476483186 159.91116523516817 A 12.5 12.5, 0, 0, 0, 309.91116523516814 177.58883476483183" transform="translate(0 0)" opacity="1" fill="none" stroke="green" stroke-width="2" ></path> <line x1="350" y1="162.5" x2="312.5" y2="200" transform="translate(0 0)" opacity="1" stroke="red" stroke-width="2" />
 <line x1="337.5" y1="150" x2="300" y2="187.5" transform="translate(0 0)" opacity="1" stroke="red" stroke-width="2" />
 <path d="M 327.58883476483186 222.41116523516817 A 12.5 12.5, 0, 0, 0, 309.91116523516814 240.08883476483183" transform="translate(0 0)" opacity="1" fill="none" stroke="blue" stroke-width="2" ></path> <path d="M 322.41116523516814 209.91116523516814 A 12.5 12.5, 0, 0, 0, 340.08883476483186 227.58883476483186" transform="translate(0 0)" opacity="1" fill="none" stroke="green" stroke-width="2" ></path> <line x1="300" y1="212.5" x2="337.5" y2="250" transform="translate(0 0)" opacity="1" stroke="red" stroke-width="2" />
 <line x1="312.5" y1="200" x2="350" y2="237.5" transform="translate(0 0)" opacity="1" stroke="red" stroke-width="2" />
 <path d="M 322.41116523516814 272.41116523516814 A 12.5 12.5, 0, 0, 0, 340.08883476483186 290.08883476483186" transform="translate(0 0)" opacity="1" fill="none" stroke="blue" stroke-width="2" ></path> <path d="M 327.58883476483186 259.91116523516814 A 12.5 12.5, 0, 0, 0, 309.91116523516814 277.58883476483186" transform="translate(0 0)" opacity="1" fill="none" stroke="green" stroke-width="2" ></path> <line x1="350" y1="262.5" x2="312.5" y2="300" transform="translate(0 0)" opacity="1" stroke="red" stroke-width="2" />
 <line x1="337.5" y1="250" x2="300" y2="287.5" transform="translate(0 0)" opacity="1" stroke="red" stroke-width="2" />
 <path d="M 327.58883476483186 322.41116523516814 A 12.5 12.5, 0, 0, 0, 309.91116523516814 340.08883476483186" transform="translate(0 0)" opacity="1" fill="none" stroke="blue" stroke-width="2" ></path> <path d="M 322.41116523516814 309.91116523516814 A 12.5 12.5, 0, 0, 0, 340.08883476483186 327.58883476483186" transform="translate(0 0)" opacity="1" fill="none" stroke="green" stroke-width="2" ></path> <line x1="300" y1="312.5" x2="337.5" y2="350" transform="translate(0 0)" opacity="1" stroke="red" stroke-width="2" />
 <line x1="312.5" y1="300" x2="350" y2="337.5" transform="translate(0 0)" opacity="1" stroke="red" stroke-width="2" />
 <path d="M 322.41116523516814 372.41116523516814 A 12.5 12.5, 0, 0, 0, 340.08883476483186 390.08883476483186" transform="translate(0 0)" opacity="1" fill="none" stroke="blue" stroke-width="2" ></path> <path d="M 327.58883476483186 359.91116523516814 A 12.5 12.5, 0, 0, 0, 309.91116523516814 377.58883476483186" transform="translate(0 0)" opacity="1" fill="none" stroke="green" stroke-width="2" ></path> <line x1="350" y1="362.5" x2="312.5" y2="400" transform="translate(0 0)" opacity="1" stroke="red" stroke-width="2" />
 <line x1="337.5" y1="350" x2="300" y2="387.5" transform="translate(0 0)" opacity="1" stroke="red" stroke-width="2" />
 <path d="M 372.41116523516814 22.411165235168156 A 12.5 12.5, 0, 0, 0, 390.08883476483186 40.088834764831844" transform="translate(0 0)" opacity="1" fill="none" stroke="blue" stroke-width="2" ></path> <path d="M 377.58883476483186 9.911165235168157 A 12.5 12.5, 0, 0, 0, 359.91116523516814 27.588834764831844" transform="translate(0 0)" opacity="1" fill="none" stroke="green" stroke-width="2" ></path> <line x1="400" y1="12.5" x2="362.5" y2="50" transform="translate(0 0)" opacity="1" stroke="red" stroke-width="2" />
 <line x1="387.5" y1="0" x2="350" y2="37.5" transform="translate(0 0)" opacity="1" stroke="red" stroke-width="2" />
 <path d="M 377.58883476483186 72.41116523516816 A 12.5 12.5, 0, 0, 0, 359.91116523516814 90.08883476483184" transform="translate(0 0)" opacity="1" fill="none" stroke="blue" stroke-width="2" ></path> <path d="M 372.41116523516814 59.911165235168156 A 12.5 12.5, 0, 0, 0, 390.08883476483186 77.58883476483184" transform="translate(0 0)" opacity="1" fill="none" stroke="green" stroke-width="2" ></path> <line x1="350" y1="62.5" x2="387.5" y2="100" transform="translate(0 0)" opacity="1" stroke="red" stroke-width="2" />
 <line x1="362.5" y1="50" x2="400" y2="87.5" transform="translate(0 0)" opacity="1" stroke="red" stroke-width="2" />
 <path d="M 372.41116523516814 122.41116523516816 A 12.5 12.5, 0, 0, 0, 390.08883476483186 140.08883476483186" transform="translate(0 0)" opacity="1" fill="none" stroke="blue" stroke-width="2" ></path> <path d="M 377.58883476483186 109.91116523516816 A 12.5 12.5, 0, 0, 0, 359.91116523516814 127.58883476483184" transform="translate(0 0)" opacity="1" fill="none" stroke="green" stroke-width="2" ></path> <line x1="400" y1="112.5" x2="362.5" y2="150" transform="translate(0 0)" opacity="1" stroke="red" stroke-width="2" />
 <line x1="387.5" y1="100" x2="350" y2="137.5" transform="translate(0 0)" opacity="1" stroke="red" stroke-width="2" />
 <path d="M 377.58883476483186 172.41116523516817 A 12.5 12.5, 0, 0, 0, 359.91116523516814 190.08883476483183" transform="translate(0 0)" opacity="1" fill="none" stroke="blue" stroke-width="2" ></path> <path d="M 372.41116523516814 159.91116523516814 A 12.5 12.5, 0, 0, 0, 390.08883476483186 177.58883476483186" transform="translate(0 0)" opacity="1" fill="none" stroke="green" stroke-width="2" ></path> <line x1="350" y1="162.5" x2="387.5" y2="200" transform="translate(0 0)" opacity="1" stroke="red" stroke-width="2" />
 <line x1="362.5" y1="150" x2="400" y2="187.5" transform="translate(0 0)" opacity="1" stroke="red" stroke-width="2" />
 <path d="M 372.41116523516814 222.41116523516814 A 12.5 12.5, 0, 0, 0, 390.08883476483186 240.08883476483186" transform="translate(0 0)" opacity="1" fill="none" stroke="blue" stroke-width="2" ></path> <path d="M 377.58883476483186 209.91116523516817 A 12.5 12.5, 0, 0, 0, 359.91116523516814 227.58883476483183" transform="translate(0 0)" opacity="1" fill="none" stroke="green" stroke-width="2" ></path> <line x1="400" y1="212.5" x2="362.5" y2="250" transform="translate(0 0)" opacity="1" stroke="red" stroke-width="2" />
 <line x1="387.5" y1="200" x2="350" y2="237.5" transform="translate(0 0)" opacity="1" stroke="red" stroke-width="2" />
 <path d="M 377.58883476483186 272.41116523516814 A 12.5 12.5, 0, 0, 0, 359.91116523516814 290.08883476483186" transform="translate(0 0)" opacity="1" fill="none" stroke="blue" stroke-width="2" ></path> <path d="M 372.41116523516814 259.91116523516814 A 12.5 12.5, 0, 0, 0, 390.08883476483186 277.58883476483186" transform="translate(0 0)" opacity="1" fill="none" stroke="green" stroke-width="2" ></path> <line x1="350" y1="262.5" x2="387.5" y2="300" transform="translate(0 0)" opacity="1" stroke="red" stroke-width="2" />
 <line x1="362.5" y1="250" x2="400" y2="287.5" transform="translate(0 0)" opacity="1" stroke="red" stroke-width="2" />
 <path d="M 372.41116523516814 322.41116523516814 A 12.5 12.5, 0, 0, 0, 390.08883476483186 340.08883476483186" transform="translate(0 0)" opacity="1" fill="none" stroke="blue" stroke-width="2" ></path> <path d="M 377.58883476483186 309.91116523516814 A 12.5 12.5, 0, 0, 0, 359.91116523516814 327.58883476483186" transform="translate(0 0)" opacity="1" fill="none" stroke="green" stroke-width="2" ></path> <line x1="400" y1="312.5" x2="362.5" y2="350" transform="translate(0 0)" opacity="1" stroke="red" stroke-width="2" />
 <line x1="387.5" y1="300" x2="350" y2="337.5" transform="translate(0 0)" opacity="1" stroke="red" stroke-width="2" />
 <path d="M 377.58883476483186 372.41116523516814 A 12.5 12.5, 0, 0, 0, 359.91116523516814 390.08883476483186" transform="translate(0 0)" opacity="1" fill="none" stroke="blue" stroke-width="2" ></path> <path d="M 372.41116523516814 359.91116523516814 A 12.5 12.5, 0, 0, 0, 390.08883476483186 377.58883476483186" transform="translate(0 0)" opacity="1" fill="none" stroke="green" stroke-width="2" ></path> <line x1="350" y1="362.5" x2="387.5" y2="400" transform="translate(0 0)" opacity="1" stroke="red" stroke-width="2" />
 <line x1="362.5" y1="350" x2="400" y2="387.5" transform="translate(0 0)" opacity="1" stroke="red" stroke-width="2" />
 <path d="M 427.58883476483186 22.411165235168156 A 12.5 12.5, 0, 0, 0, 409.91116523516814 40.088834764831844" transform="translate(0 0)" opacity="1" fill="none" stroke="blue" stroke-width="2" ></path> <path d="M 422.41116523516814 9.911165235168156 A 12.5 12.5, 0, 0, 0, 440.08883476483186 27.588834764831844" transform="translate(0 0)" opacity="1" fill="none" stroke="green" stroke-width="2" ></path> <line x1="400" y1="12.5" x2="437.5" y2="50" transform="translate(0 0)" opacity="1" stroke="red" stroke-width="2" />
 <line x1="412.5" y1="0" x2="450" y2="37.5" transform="translate(0 0)" opacity="1" stroke="red" stroke-width="2" />
 <path d="M 422.41116523516814 72.41116523516816 A 12.5 12.5, 0, 0, 0, 440.08883476483186 90.08883476483184" transform="translate(0 0)" opacity="1" fill="none" stroke="blue" stroke-width="2" ></path> <path d="M 427.58883476483186 59.911165235168156 A 12.5 12.5, 0, 0, 0, 409.91116523516814 77.58883476483184" transform="translate(0 0)" opacity="1" fill="none" stroke="green" stroke-width="2" ></path> <line x1="450" y1="62.5" x2="412.5" y2="100" transform="translate(0 0)" opacity="1" stroke="red" stroke-width="2" />
 <line x1="437.5" y1="50" x2="400" y2="87.5" transform="translate(0 0)" opacity="1" stroke="red" stroke-width="2" />
 <path d="M 427.58883476483186 122.41116523516816 A 12.5 12.5, 0, 0, 0, 409.91116523516814 140.08883476483183" transform="translate(0 0)" opacity="1" fill="none" stroke="blue" stroke-width="2" ></path> <path d="M 422.41116523516814 109.91116523516816 A 12.5 12.5, 0, 0, 0, 440.08883476483186 127.58883476483184" transform="translate(0 0)" opacity="1" fill="none" stroke="green" stroke-width="2" ></path> <line x1="400" y1="112.5" x2="437.5" y2="150" transform="translate(0 0)" opacity="1" stroke="red" stroke-width="2" />
 <line x1="412.5" y1="100" x2="450" y2="137.5" transform="translate(0 0)" opacity="1" stroke="red" stroke-width="2" />
 <path d="M 422.41116523516814 172.41116523516814 A 12.5 12.5, 0, 0, 0, 440.08883476483186 190.08883476483186" transform="translate(0 0)" opacity="1" fill="none" stroke="blue" stroke-width="2" ></path> <path d="M 427.58883476483186 159.91116523516817 A 12.5 12.5, 0, 0, 0, 409.91116523516814 177.58883476483183" transform="translate(0 0)" opacity="1" fill="none" stroke="green" stroke-width="2" ></path> <line x1="450" y1="162.5" x2="412.5" y2="200" transform="translate(0 0)" opacity="1" stroke="red" stroke-width="2" />
 <line x1="437.5" y1="150" x2="400" y2="187.5" transform="translate(0 0)" opacity="1" stroke="red" stroke-width="2" />
 <path d="M 427.58883476483186 222.41116523516817 A 12.5 12.5, 0, 0, 0, 409.91116523516814 240.08883476483183" transform="translate(0 0)" opacity="1" fill="none" stroke="blue" stroke-width="2" ></path> <path d="M 422.41116523516814 209.91116523516814 A 12.5 12.5, 0, 0, 0, 440.08883476483186 227.58883476483186" transform="translate(0 0)" opacity="1" fill="none" stroke="green" stroke-width="2" ></path> <line x1="400" y1="212.5" x2="437.5" y2="250" transform="translate(0 0)" opacity="1" stroke="red" stroke-width="2" />
 <line x1="412.5" y1="200" x2="450" y2="237.5" transform="translate(0 0)" opacity="1" stroke="red" stroke-width="2" />
 <path d="M 422.41116523516814 272.41116523516814 A 12.5 12.5, 0, 0, 0, 440.08883476483186 290.08883476483186" transform="translate(0 0)" opacity="1" fill="none" stroke="blue" stroke-width="2" ></path> <path d="M 427.58883476483186 259.91116523516814 A 12.5 12.5, 0, 0, 0, 409.91116523516814 277.58883476483186" transform="translate(0 0)" opacity="1" fill="none" stroke="green" stroke-width="2" ></path> <line x1="450" y1="262.5" x2="412.5" y2="300" transform="translate(0 0)" opacity="1" stroke="red" stroke-width="2" />
 <line x1="437.5" y1="250" x2="400" y2="287.5" transform="translate(0 0)" opacity="1" stroke="red" stroke-width="2" />
 <path d="M 427.58883476483186 322.41116523516814 A 12.5 12.5, 0, 0, 0, 409.91116523516814 340.08883476483186" transform="translate(0 0)" opacity="1" fill="none" stroke="blue" stroke-width="2" ></path> <path d="M 422.41116523516814 309.91116523516814 A 12.5 12.5, 0, 0, 0, 440.08883476483186 327.58883476483186" transform="translate(0 0)" opacity="1" fill="none" stroke="green" stroke-width="2" ></path> <line x1="400" y1="312.5" x2="437.5" y2="350" transform="translate(0 0)" opacity="1" stroke="red" stroke-width="2" />
 <line x1="412.5" y1="300" x2="450" y2="337.5" transform="translate(0 0)" opacity="1" stroke="red" stroke-width="2" />
 <path d="M 422.41116523516814 372.41116523516814 A 12.5 12.5, 0, 0, 0, 440.08883476483186 390.08883476483186" transform="translate(0 0)" opacity="1" fill="none" stroke="blue" stroke-width="2" ></path> <path d="M 427.58883476483186 359.91116523516814 A 12.5 12.5, 0, 0, 0, 409.91116523516814 377.58883476483186" transform="translate(0 0)" opacity="1" fill="none" stroke="green" stroke-width="2" ></path> <line x1="450" y1="362.5" x2="412.5" y2="400" transform="translate(0 0)" opacity="1" stroke="red" stroke-width="2" />
 <line x1="437.5" y1="350" x2="400" y2="387.5" transform="translate(0 0)" opacity="1" stroke="red" stroke-width="2" />
 <path d="M 472.41116523516814 22.411165235168156 A 12.5 12.5, 0, 0, 0, 490.08883476483186 40.088834764831844" transform="translate(0 0)" opacity="1" fill="none" stroke="blue" stroke-width="2" ></path> <path d="M 477.58883476483186 9.911165235168157 A 12.5 12.5, 0, 0, 0, 459.91116523516814 27.588834764831844" transform="translate(0 0)" opacity="1" fill="none" stroke="green" stroke-width="2" ></path> <line x1="500" y1="12.5" x2="462.5" y2="50" transform="translate(0 0)" opacity="1" stroke="red" stroke-width="2" />
 <line x1="487.5" y1="0" x2="450" y2="37.5" transform="translate(0 0)" opacity="1" stroke="red" stroke-width="2" />
 <path d="M 477.58883476483186 72.41116523516816 A 12.5 12.5, 0, 0, 0, 459.91116523516814 90.08883476483184" transform="translate(0 0)" opacity="1" fill="none" stroke="blue" stroke-width="2" ></path> <path d="M 472.41116523516814 59.911165235168156 A 12.5 12.5, 0, 0, 0, 490.08883476483186 77.58883476483184" transform="translate(0 0)" opacity="1" fill="none" stroke="green" stroke-width="2" ></path> <line x1="450" y1="62.5" x2="487.5" y2="100" transform="translate(0 0)" opacity="1" stroke="red" stroke-width="2" />
 <line x1="462.5" y1="50" x2="500" y2="87.5" transform="translate(0 0)" opacity="1" stroke="red" stroke-width="2" />
 <path d="M 472.41116523516814 122.41116523516816 A 12.5 12.5, 0, 0, 0, 490.08883476483186 140.08883476483186" transform="translate(0 0)" opacity="1" fill="none" stroke="blue" stroke-width="2" ></path> <path d="M 477.58883476483186 109.91116523516816 A 12.5 12.5, 0, 0, 0, 459.91116523516814 127.58883476483184" transform="translate(0 0)" opacity="1" fill="none" stroke="green" stroke-width="2" ></path> <line x1="500" y1="112.5" x2="462.5" y2="150" transform="translate(0 0)" opacity="1" stroke="red" stroke-width="2" />
 <line x1="487.5" y1="100" x2="450" y2="137.5" transform="translate(0 0)" opacity="1" stroke="red" stroke-width="2" />
 <path d="M 477.58883476483186 172.41116523516817 A 12.5 12.5, 0, 0, 0, 459.91116523516814 190.08883476483183" transform="translate(0 0)" opacity="1" fill="none" stroke="blue" stroke-width="2" ></path> <path d="M 472.41116523516814 159.91116523516814 A 12.5 12.5, 0, 0, 0, 490.08883476483186 177.58883476483186" transform="translate(0 0)" opacity="1" fill="none" stroke="green" stroke-width="2" ></path> <line x1="450" y1="162.5" x2="487.5" y2="200" transform="translate(0 0)" opacity="1" stroke="red" stroke-width="2" />
 <line x1="462.5" y1="150" x2="500" y2="187.5" transform="translate(0 0)" opacity="1" stroke="red" stroke-width="2" />
 <path d="M 472.41116523516814 222.41116523516814 A 12.5 12.5, 0, 0, 0, 490.08883476483186 240.08883476483186" transform="translate(0 0)" opacity="1" fill="none" stroke="blue" stroke-width="2" ></path> <path d="M 477.58883476483186 209.91116523516817 A 12.5 12.5, 0, 0, 0, 459.91116523516814 227.58883476483183" transform="translate(0 0)" opacity="1" fill="none" stroke="green" stroke-width="2" ></path> <line x1="500" y1="212.5" x2="462.5" y2="250" transform="translate(0 0)" opacity="1" stroke="red" stroke-width="2" />
 <line x1="487.5" y1="200" x2="450" y2="237.5" transform="translate(0 0)" opacity="1" stroke="red" stroke-width="2" />
 <path d="M 477.58883476483186 272.41116523516814 A 12.5 12.5, 0, 0, 0, 459.91116523516814 290.08883476483186" transform="translate(0 0)" opacity="1" fill="none" stroke="blue" stroke-width="2" ></path> <path d="M 472.41116523516814 259.91116523516814 A 12.5 12.5, 0, 0, 0, 490.08883476483186 277.58883476483186" transform="translate(0 0)" opacity="1" fill="none" stroke="green" stroke-width="2" ></path> <line x1="450" y1="262.5" x2="487.5" y2="300" transform="translate(0 0)" opacity="1" stroke="red" stroke-width="2" />
 <line x1="462.5" y1="250" x2="500" y2="287.5" transform="translate(0 0)" opacity="1" stroke="red" stroke-width="2" />
 <path d="M 472.41116523516814 322.41116523516814 A 12.5 12.5, 0, 0, 0, 490.08883476483186 340.08883476483186" transform="translate(0 0)" opacity="1" fill="none" stroke="blue" stroke-width="2" ></path> <path d="M 477.58883476483186 309.91116523516814 A 12.5 12.5, 0, 0, 0, 459.91116523516814 327.58883476483186" transform="translate(0 0)" opacity="1" fill="none" stroke="green" stroke-width="2" ></path> <line x1="500" y1="312.5" x2="462.5" y2="350" transform="translate(0 0)" opacity="1" stroke="red" stroke-width="2" />
 <line x1="487.5" y1="300" x2="450" y2="337.5" transform="translate(0 0)" opacity="1" stroke="red" stroke-width="2" />
 <path d="M 477.58883476483186 372.41116523516814 A 12.5 12.5, 0, 0, 0, 459.91116523516814 390.08883476483186" transform="translate(0 0)" opacity="1" fill="none" stroke="blue" stroke-width="2" ></path> <path d="M 472.41116523516814 359.91116523516814 A 12.5 12.5, 0, 0, 0, 490.08883476483186 377.58883476483186" transform="translate(0 0)" opacity="1" fill="none" stroke="green" stroke-width="2" ></path> <line x1="450" y1="362.5" x2="487.5" y2="400" transform="translate(0 0)" opacity="1" stroke="red" stroke-width="2" />
 <line x1="462.5" y1="350" x2="500" y2="387.5" transform="translate(0 0)" opacity="1" stroke="red" stroke-width="2" />
 <path d="M 527.5888347648319 22.411165235168156 A 12.5 12.5, 0, 0, 0, 509.91116523516814 40.088834764831844" transform="translate(0 0)" opacity="1" fill="none" stroke="blue" stroke-width="2" ></path> <path d="M 522.4111652351681 9.911165235168156 A 12.5 12.5, 0, 0, 0, 540.0888347648319 27.588834764831844" transform="translate(0 0)" opacity="1" fill="none" stroke="green" stroke-width="2" ></path> <line x1="500" y1="12.5" x2="537.5" y2="50" transform="translate(0 0)" opacity="1" stroke="red" stroke-width="2" />
 <line x1="512.5" y1="0" x2="550" y2="37.5" transform="translate(0 0)" opacity="1" stroke="red" stroke-width="2" />
 <path d="M 522.4111652351681 72.41116523516816 A 12.5 12.5, 0, 0, 0, 540.0888347648319 90.08883476483184" transform="translate(0 0)" opacity="1" fill="none" stroke="blue" stroke-width="2" ></path> <path d="M 527.5888347648319 59.911165235168156 A 12.5 12.5, 0, 0, 0, 509.91116523516814 77.58883476483184" transform="translate(0 0)" opacity="1" fill="none" stroke="green" stroke-width="2" ></path> <line x1="550" y1="62.5" x2="512.5" y2="100" transform="translate(0 0)" opacity="1" stroke="red" stroke-width="2" />
 <line x1="537.5" y1="50" x2="500" y2="87.5" transform="translate(0 0)" opacity="1" stroke="red" stroke-width="2" />
 <path d="M 527.5888347648319 122.41116523516816 A 12.5 12.5, 0, 0, 0, 509.91116523516814 140.08883476483183" transform="translate(0 0)" opacity="1" fill="none" stroke="blue" stroke-width="2" ></path> <path d="M 522.4111652351681 109.91116523516816 A 12.5 12.5, 0, 0, 0, 540.0888347648319 127.58883476483184" transform="translate(0 0)" opacity="1" fill="none" stroke="green" stroke-width="2" ></path> <line x1="500" y1="112.5" x2="537.5" y2="150" transform="translate(0 0)" opacity="1" stroke="red" stroke-width="2" />
 <line x1="512.5" y1="100" x2="550" y2="137.5" transform="translate(0 0)" opacity="1" stroke="red" stroke-width="2" />
 <path d="M 522.4111652351681 172.41116523516814 A 12.5 12.5, 0, 0, 0, 540.0888347648319 190.08883476483186" transform="translate(0 0)" opacity="1" fill="none" stroke="blue" stroke-width="2" ></path> <path d="M 527.5888347648319 159.91116523516817 A 12.5 12.5, 0, 0, 0, 509.91116523516814 177.58883476483183" transform="translate(0 0)" opacity="1" fill="none" stroke="green" stroke-width="2" ></path> <line x1="550" y1="162.5" x2="512.5" y2="200" transform="translate(0 0)" opacity="1" stroke="red" stroke-width="2" />
 <line x1="537.5" y1="150" x2="500" y2="187.5" transform="translate(0 0)" opacity="1" stroke="red" stroke-width="2" />
 <path d="M 527.5888347648319 222.41116523516817 A 12.5 12.5, 0, 0, 0, 509.91116523516814 240.08883476483183" transform="translate(0 0)" opacity="1" fill="none" stroke="blue" stroke-width="2" ></path> <path d="M 522.4111652351681 209.91116523516814 A 12.5 12.5, 0, 0, 0, 540.0888347648319 227.58883476483186" transform="translate(0 0)" opacity="1" fill="none" stroke="green" stroke-width="2" ></path> <line x1="500" y1="212.5" x2="537.5" y2="250" transform="translate(0 0)" opacity="1" stroke="red" stroke-width="2" />
 <line x1="512.5" y1="200" x2="550" y2="237.5" transform="translate(0 0)" opacity="1" stroke="red" stroke-width="2" />
 <path d="M 522.4111652351681 272.41116523516814 A 12.5 12.5, 0, 0, 0, 540.0888347648319 290.08883476483186" transform="translate(0 0)" opacity="1" fill="none" stroke="blue" stroke-width="2" ></path> <path d="M 527.5888347648319 259.91116523516814 A 12.5 12.5, 0, 0, 0, 509.91116523516814 277.58883476483186" transform="translate(0 0)" opacity="1" fill="none" stroke="green" stroke-width="2" ></path> <line x1="550" y1="262.5" x2="512.5" y2="300" transform="translate(0 0)" opacity="1" stroke="red" stroke-width="2" />
 <line x1="537.5" y1="250" x2="500" y2="287.5" transform="translate(0 0)" opacity="1" stroke="red" stroke-width="2" />
 <path d="M 527.5888347648319 322.41116523516814 A 12.5 12.5, 0, 0, 0, 509.91116523516814 340.08883476483186" transform="translate(0 0)" opacity="1" fill="none" stroke="blue" stroke-width="2" ></path> <path d="M 522.4111652351681 309.91116523516814 A 12.5 12.5, 0, 0, 0, 540.0888347648319 327.58883476483186" transform="translate(0 0)" opacity="1" fill="none" stroke="green" stroke-width="2" ></path> <line x1="500" y1="312.5" x2="537.5" y2="350" transform="translate(0 0)" opacity="1" stroke="red" stroke-width="2" />
 <line x1="512.5" y1="300" x2="550" y2="337.5" transform="translate(0 0)" opacity="1" stroke="red" stroke-width="2" />
 <path d="M 522.4111652351681 372.41116523516814 A 12.5 12.5, 0, 0, 0, 540.0888347648319 390.08883476483186" transform="translate(0 0)" opacity="1" fill="none" stroke="blue" stroke-width="2" ></path> <path d="M 527.5888347648319 359.91116523516814 A 12.5 12.5, 0, 0, 0, 509.91116523516814 377.58883476483186" transform="translate(0 0)" opacity="1" fill="none" stroke="green" stroke-width="2" ></path> <line x1="550" y1="362.5" x2="512.5" y2="400" transform="translate(0 0)" opacity="1" stroke="red" stroke-width="2" />
 <line x1="537.5" y1="350" x2="500" y2="387.5" transform="translate(0 0)" opacity="1" stroke="red" stroke-width="2" />
 <path d="M 572.4111652351681 22.411165235168156 A 12.5 12.5, 0, 0, 0, 590.0888347648319 40.088834764831844" transform="translate(0 0)" opacity="1" fill="none" stroke="blue" stroke-width="2" ></path> <path d="M 577.5888347648319 9.911165235168157 A 12.5 12.5, 0, 0, 0, 559.9111652351681 27.588834764831844" transform="translate(0 0)" opacity="1" fill="none" stroke="green" stroke-width="2" ></path> <line x1="600" y1="12.5" x2="562.5" y2="50" transform="translate(0 0)" opacity="1" stroke="red" stroke-width="2" />
 <line x1="587.5" y1="0" x2="550" y2="37.5" transform="translate(0 0)" opacity="1" stroke="red" stroke-width="2" />
 <path d="M 577.5888347648319 72.41116523516816 A 12.5 12.5, 0, 0, 0, 559.9111652351681 90.08883476483184" transform="translate(0 0)" opacity="1" fill="none" stroke="blue" stroke-width="2" ></path> <path d="M 572.4111652351681 59.911165235168156 A 12.5 12.5, 0, 0, 0, 590.0888347648319 77.58883476483184" transform="translate(0 0)" opacity="1" fill="none" stroke="green" stroke-width="2" ></path> <line x1="550" y1="62.5" x2="587.5" y2="100" transform="translate(0 0)" opacity="1" stroke="red" stroke-width="2" />
 <line x1="562.5" y1="50" x2="600" y2="87.5" transform="translate(0 0)" opacity="1" stroke="red" stroke-width="2" />
 <path d="M 572.4111652351681 122.41116523516816 A 12.5 12.5, 0, 0, 0, 590.0888347648319 140.08883476483186" transform="translate(0 0)" opacity="1" fill="none" stroke="blue" stroke-width="2" ></path> <path d="M 577.5888347648319 109.91116523516816 A 12.5 12.5, 0, 0, 0, 559.9111652351681 127.58883476483184" transform="translate(0 0)" opacity="1" fill="none" stroke="green" stroke-width="2" ></path> <line x1="600" y1="112.5" x2="562.5" y2="150" transform="translate(0 0)" opacity="1" stroke="red" stroke-width="2" />
 <line x1="587.5" y1="100" x2="550" y2="137.5" transform="translate(0 0)" opacity="1" stroke="red" stroke-width="2" />
 <path d="M 577.5888347648319 172.41116523516817 A 12.5 12.5, 0, 0, 0, 559.9111652351681 190.08883476483183" transform="translate(0 0)" opacity="1" fill="none" stroke="blue" stroke-width="2" ></path> <path d="M 572.4111652351681 159.91116523516814 A 12.5 12.5, 0, 0, 0, 590.0888347648319 177.58883476483186" transform="translate(0 0)" opacity="1" fill="none" stroke="green" stroke-width="2" ></path> <line x1="550" y1="162.5" x2="587.5" y2="200" transform="translate(0 0)" opacity="1" stroke="red" stroke-width="2" />
 <line x1="562.5" y1="150" x2="600" y2="187.5" transform="translate(0 0)" opacity="1" stroke="red" stroke-width="2" />
 <path d="M 572.4111652351681 222.41116523516814 A 12.5 12.5, 0, 0, 0, 590.0888347648319 240.08883476483186" transform="translate(0 0)" opacity="1" fill="none" stroke="blue" stroke-width="2" ></path> <path d="M 577.5888347648319 209.91116523516817 A 12.5 12.5, 0, 0, 0, 559.9111652351681 227.58883476483183" transform="translate(0 0)" opacity="1" fill="none" stroke="green" stroke-width="2" ></path> <line x1="600" y1="212.5" x2="562.5" y2="250" transform="translate(0 0)" opacity="1" stroke="red" stroke-width="2" />
 <line x1="587.5" y1="200" x2="550" y2="237.5" transform="translate(0 0)" opacity="1" stroke="red" stroke-width="2" />
 <path d="M 577.5888347648319 272.41116523516814 A 12.5 12.5, 0, 0, 0, 559.9111652351681 290.08883476483186" transform="translate(0 0)" opacity="1" fill="none" stroke="blue" stroke-width="2" ></path> <path d="M 572.4111652351681 259.91116523516814 A 12.5 12.5, 0, 0, 0, 590.0888347648319 277.58883476483186" transform="translate(0 0)" opacity="1" fill="none" stroke="green" stroke-width="2" ></path> <line x1="550" y1="262.5" x2="587.5" y2="300" transform="translate(0 0)" opacity="1" stroke="red" stroke-width="2" />
 <line x1="562.5" y1="250" x2="600" y2="287.5" transform="translate(0 0)" opacity="1" stroke="red" stroke-width="2" />
 <path d="M 572.4111652351681 322.41116523516814 A 12.5 12.5, 0, 0, 0, 590.0888347648319 340.08883476483186" transform="translate(0 0)" opacity="1" fill="none" stroke="blue" stroke-width="2" ></path> <path d="M 577.5888347648319 309.91116523516814 A 12.5 12.5, 0, 0, 0, 559.9111652351681 327.58883476483186" transform="translate(0 0)" opacity="1" fill="none" stroke="green" stroke-width="2" ></path> <line x1="600" y1="312.5" x2="562.5" y2="350" transform="translate(0 0)" opacity="1" stroke="red" stroke-width="2" />
 <line x1="587.5" y1="300" x2="550" y2="337.5" transform="translate(0 0)" opacity="1" stroke="red" stroke-width="2" />
 <path d="M 577.5888347648319 372.41116523516814 A 12.5 12.5, 0, 0, 0, 559.9111652351681 390.08883476483186" transform="translate(0 0)" opacity="1" fill="none" stroke="blue" stroke-width="2" ></path> <path d="M 572.4111652351681 359.91116523516814 A 12.5 12.5, 0, 0, 0, 590.0888347648319 377.58883476483186" transform="translate(0 0)" opacity="1" fill="none" stroke="green" stroke-width="2" ></path> <line x1="550" y1="362.5" x2="587.5" y2="400" transform="translate(0 0)" opacity="1" stroke="red" stroke-width="2" />
 <line x1="562.5" y1="350" x2="600" y2="387.5" transform="translate(0 0)" opacity="1" stroke="red" stroke-width="2" />

	</g>
</svg>
